
CASCADE Topology V3, (c) Open Cascade
Locations 0
Curve2ds 16
7 0 0  1 2 2  0 0  13000 0 
 0 2 12000 2
1 13000 0 0 1 
1 0 0 0 1 
1 0 1 1 0 
1 0 0 0 1 
1 7000 0 0 1 
7 0 0  1 2 2  0 0  7000 0 
 0 2 6000 2
1 7000 0 0 1 
1 0 0 0 1 
1 0 1 1 0 
7 0 0  1 2 2  0 0  13000 0 
 0 2 12000 2
1 13000 0 0 1 
1 0 0 0 1 
1 0 1 1 0 
7 0 0  1 2 2  0 0  7000 0 
 0 2 6000 2
1 0 1 1 0 
Curves 12
1 0 3000 0 0 0 1 
7 0 0  1 2 2  0 3000 12000  8000 3500 13000 
 0 2 1 2
1 8000 3500 0 0 0 1 
7 0 0  1 2 2  0 3000 0  8000 3500 0 
 0 2 1 2
1 0 3000 12000 0 -1 0 
7 0 0  1 2 2  0 -3000 12000  8000 -3500 13000 
 0 2 1 2
1 8000 3500 13000 0 -1 0 
1 0 -3000 12000 0 0 -1 
7 0 0  1 2 2  0 -3000 0  8000 -3500 0 
 0 2 1 2
1 8000 -3500 13000 0 0 -1 
1 0 -3000 0 0 1 0 
1 8000 -3500 0 0 1 0 
Polygon3D 0
PolygonOnTriangulations 24
2 1 2 
p 325000.000005 1 0 12000 
2 2 4 
p 325000.000005 1 0 12000 
2 2 3 
p 325000.000005 1 0 1 
2 1 4 
p 325000.000005 1 0 1 
2 4 3 
p 325000.000005 1 0 13000 
2 2 4 
p 325000.000005 1 0 13000 
2 1 4 
p 325000.000005 1 0 1 
2 2 3 
p 325000.000005 1 0 1 
2 1 2 
p 325000.000005 1 0 6000 
2 4 3 
p 325000.000005 1 0 6000 
2 2 3 
p 325000.000005 1 0 1 
2 1 4 
p 325000.000005 1 0 1 
2 4 3 
p 325000.000005 1 0 7000 
2 4 3 
p 325000.000005 1 0 7000 
2 1 2 
p 325000.000005 1 0 12000 
2 3 1 
p 325000.000005 1 0 12000 
2 2 3 
p 325000.000005 1 0 1 
2 1 4 
p 325000.000005 1 0 1 
2 4 3 
p 325000.000005 1 0 13000 
2 3 1 
p 325000.000005 1 0 13000 
2 1 2 
p 325000.000005 1 0 6000 
2 1 2 
p 325000.000005 1 0 6000 
2 4 3 
p 325000.000005 1 0 7000 
2 1 2 
p 325000.000005 1 0 7000 
Surfaces 6
9 0 0 0 0 1 1 2 2 2 2 0 3000 0  8000 3500 0  
0 3000 12000  8000 3500 13000  

0 2
13000 2

0 2
1 2

1 0 3000 0 -1 0 0 0 -0.44721359549995798 0.89442719099991597 0 0.89442719099991597 0.44721359549995798 
9 0 0 0 0 1 1 2 2 2 2 0 3000 12000  8000 3500 13000  
0 -3000 12000  8000 -3500 13000  

0 2
7000 2

0 2
1 2

1 8000 3500 0 -1 0 0 0 -0.47409982303501746 0.88047109992217532 0 0.88047109992217532 0.47409982303501746 
9 0 0 0 0 1 1 2 2 2 2 0 -3000 0  8000 -3500 0  
0 3000 0  8000 3500 0  

0 2
7000 2

0 2
1 2

9 0 0 0 0 1 1 2 2 2 2 0 -3000 12000  8000 -3500 13000  
0 -3000 0  8000 -3500 0  

0 2
13000 2

0 2
1 2

Triangulations 6
4 2 1 0 250
0 3000 0 0 3000 12000 8000 3500 13000 8000 3500 0 0 0 13000 0 13000 1 0 1 3 1 2 3 4 1 
4 2 1 0 1.94268153457359e-12
0 -3000 0 0 3000 0 0 -3000 12000 0 3000 12000 2683.28157299975 -5366.5631459995 0 0 13416.4078649987 0 10733.126291999 5366.5631459995 3 2 1 4 2 3 
4 2 1 0 250
0 3000 12000 0 -3000 12000 8000 -3500 13000 8000 3500 13000 0 0 7000 0 7000 1 0 1 4 1 2 3 4 2 
4 2 1 0 1.83314517660132e-12
8000 -3500 0 8000 3500 0 8000 -3500 13000 8000 3500 13000 3318.69876124512 -6163.29769945523 0 0 14764.8230602334 0 11446.1242989883 6163.29769945523 4 2 1 4 1 3 
4 2 1 0 250
0 -3000 0 0 3000 0 8000 3500 0 8000 -3500 0 0 0 7000 0 7000 1 0 1 3 1 2 3 4 1 
4 2 1 0 250
0 -3000 12000 0 -3000 0 8000 -3500 0 8000 -3500 13000 0 0 13000 0 13000 1 0 1 2 4 1 3 4 2 

TShapes 34
Ve
1e-07
0 3000 0
0 0

0101101
*
Ve
1e-07
0 3000 12000
0 0

0101101
*
Ed
 1e-07 1 1 0
1  1 0 0 12000
2  1 1 0 0 12000
4 C0 1 0 2 0
6  1 1 0
6  2 2 0
0

0101000
+34 0 -33 0 *
Ve
1e-07
8000 3500 13000
0 0

0101101
*
Ed
 1e-07 1 1 0
1  2 0 0 1
2  2 1 0 0 1
2  3 3 0 0 1
4 C0 1 0 3 0
6  3 1 0
6  4 3 0
0

0101000
+33 0 -31 0 *
Ve
1e-07
8000 3500 0
0 0

0101101
*
Ed
 1e-07 1 1 0
1  3 0 0 13000
2  4 1 0 0 13000
4 C0 1 0 4 0
6  5 1 0
6  6 4 0
0

0101000
+29 0 -31 0 *
Ed
 1e-07 1 1 0
1  4 0 0 1
2  5 1 0 0 1
2  6 5 0 0 1
4 C0 1 0 5 0
6  7 1 0
6  8 5 0
0

0101000
+34 0 -29 0 *
Wi

0101000
+32 0 +30 0 -28 0 -27 0 *
Fa
0  1e-07 1 0
2  1
0101000
+26 0 *
Ve
1e-07
0 -3000 12000
0 0

0101101
*
Ed
 1e-07 1 1 0
1  5 0 0 6000
2  7 3 0 0 6000
4 C0 3 0 2 0
6  9 3 0
6  10 2 0
0

0101000
+33 0 -24 0 *
Ve
1e-07
8000 -3500 13000
0 0

0101101
*
Ed
 1e-07 1 1 0
1  6 0 0 1
2  8 3 0 0 1
2  9 6 0 0 1
4 C0 3 0 6 0
6  11 3 0
6  12 6 0
0

0101000
+24 0 -22 0 *
Ed
 1e-07 1 1 0
1  7 0 0 7000
2  10 3 0 0 7000
4 C0 3 0 4 0
6  13 3 0
6  14 4 0
0

0101000
+31 0 -22 0 *
Wi

0101000
+23 0 +21 0 -20 0 -30 0 *
Fa
0  1e-07 3 0
2  3
0101000
+19 0 *
Ve
1e-07
0 -3000 0
0 0

0101101
*
Ed
 1e-07 1 1 0
1  8 0 0 12000
2  11 6 0 0 12000
4 C0 6 0 2 0
6  15 6 0
6  16 2 0
0

0101000
+24 0 -17 0 *
Ve
1e-07
8000 -3500 0
0 0

0101101
*
Ed
 1e-07 1 1 0
1  9 0 0 1
2  12 6 0 0 1
2  13 5 0 0 1
4 C0 6 0 5 0
6  17 6 0
6  18 5 0
0

0101000
+17 0 -15 0 *
Ed
 1e-07 1 1 0
1  10 0 0 13000
2  14 6 0 0 13000
4 C0 6 0 4 0
6  19 6 0
6  20 4 0
0

0101000
+22 0 -15 0 *
Wi

0101000
+16 0 +14 0 -13 0 -21 0 *
Fa
0  1e-07 6 0
2  6
0101000
+12 0 *
Ed
 1e-07 1 1 0
1  11 0 0 6000
2  15 5 0 0 6000
4 C0 5 0 2 0
6  21 5 0
6  22 2 0
0

0101000
+17 0 -34 0 *
Ed
 1e-07 1 1 0
1  12 0 0 7000
2  16 5 0 0 7000
4 C0 5 0 4 0
6  23 5 0
6  24 4 0
0

0101000
+15 0 -29 0 *
Wi

0101000
+10 0 +27 0 -9 0 -14 0 *
Fa
0  1e-07 5 0
2  5
0101000
+8 0 *
Wi

0101100
+32 0 +23 0 +16 0 +10 0 *
Fa
0  1e-07 2 0
2  2
0101000
-6 0 *
Wi

0101100
+28 0 +20 0 +13 0 +9 0 *
Fa
0  1e-07 4 0
2  4
0101000
-4 0 *
Sh

0101100
+25 0 +18 0 +11 0 +7 0 +5 0 -3 0 *
So

1100100
+2 0 *

+1 0 