
CASCADE Topology V3, (c) Open Cascade
Locations 2
1
              1               0               0               0 
              0               1               0               0 
              0               0               1            1800 
2  1 -1 0
Curve2ds 0
Curves 8
1 1398.0762110000001 -3578.4609700000001 12600 0 0 1 
1 998.07621099999994 -4271.281293 12600 0 0 1 
1 1398.0762110000001 -3578.4609700000001 12600 -0.50000000001491252 -0.86602540377582893 0 
1 -560.76951500000007 -3371.2812920000001 12600 0 0 1 
1 998.07621099999994 -4271.281293 12600 -0.86602540343109968 0.50000000061200089 0 
1 -160.76951500000001 -2678.4609690000002 12600 0 0 1 
1 -560.76951500000007 -3371.2812920000001 12600 0.5000000000149124 0.86602540377582893 0 
1 -160.76951500000001 -2678.4609690000002 12600 0.86602540343109968 -0.50000000061200089 0 
Polygon3D 0
PolygonOnTriangulations 20
2 1 2 
p 48971.143155 1 0 1800 
2 4 3 
p 48971.143155 1 0 1800 
2 4 3 
p 48971.143155 1 0 1800 
2 1 2 
p 48971.143155 1 0 1800 
2 1 4 
p 48971.143155 1 0 799.99999997614 
2 1 2 
p 48971.143155 1 0 799.99999997614 
2 2 3 
p 48971.143155 1 0 799.99999997614 
2 4 3 
p 48971.143155 1 0 1800 
2 1 2 
p 48971.143155 1 0 1800 
2 1 4 
p 48971.143155 1 0 1799.9999997968 
2 2 3 
p 48971.143155 1 0 1799.9999997968 
2 2 3 
p 48971.143155 1 0 1799.9999997968 
2 4 3 
p 48971.143155 1 0 1800 
2 1 2 
p 48971.143155 1 0 1800 
2 1 4 
p 48971.143155 1 0 799.99999997614 
2 3 4 
p 48971.143155 1 0 799.99999997614 
2 2 3 
p 48971.143155 1 0 799.99999997614 
2 1 4 
p 48971.143155 1 0 1799.9999997968 
2 4 1 
p 48971.143155 1 0 1799.9999997968 
2 2 3 
p 48971.143155 1 0 1799.9999997968 
Surfaces 5
1 1398.0762110000001 -3578.4609700000001 12600 0.86602540377582893 -0.50000000001491252 0 -0.50000000001491252 -0.86602540377582893 0 0 -0 -1 
1 998.07621099999994 -4271.281293 12600 -0.50000000061200101 -0.86602540343109979 0 -0.86602540343109979 0.50000000061200101 0 -0 0 -1 
1 -560.76951500000007 -3371.2812920000001 12600 -0.86602540377582904 0.50000000001491252 0 0.5000000000149124 0.86602540377582893 0 0 0 -1 
1 -160.76951500000001 -2678.4609690000002 12600 0.50000000061200101 0.86602540343109979 -0 0.86602540343109979 -0.50000000061200101 0 0 -0 -1 
1 418.65334800000005 -3474.8711309999994 12600 -0 -0 -1 -1 0 0 0 1 -0 
Triangulations 5
4 2 1 0 2.27373675443232e-13
1398.076211 -3578.46097 12600 1398.076211 -3578.46097 14400 998.076211 -4271.281293 14400 998.076211 -4271.281293 12600 0 0 0 -1800 799.99999997614 -1800 799.99999997614 0 4 1 2 4 2 3 
4 2 1 0 4.54747350886464e-13
-160.769515 -2678.460969 12600 -160.769515 -2678.460969 14400 1398.076211 -3578.46097 14400 1398.076211 -3578.46097 12600 0 0 0 -1800 1799.9999997968 -1800 1799.9999997968 0 4 1 2 4 2 3 
4 2 1 0 1.49213974509621e-13
998.076211 -4271.281293 12600 998.076211 -4271.281293 14400 -560.769515 -3371.281292 14400 -560.769515 -3371.281292 12600 0 0 0 -1800 1799.9999997968 -1800 1799.9999997968 0 4 1 2 4 2 3 
4 2 1 0 4.58286294150329e-13
1398.076211 -3578.46097 12600 998.076211 -4271.281293 12600 -560.769515 -3371.281292 12600 -160.769515 -2678.460969 12600 -979.422863 -103.589839000001 -579.422863 -796.410162000001 979.422863 103.589838999999 579.422863 796.410161999999 3 1 2 4 1 3 
4 2 1 0 4.58286294150329e-13
-560.769515 -3371.281292 12600 -560.769515 -3371.281292 14400 -160.769515 -2678.460969 14400 -160.769515 -2678.460969 12600 0 0 0 -1800 799.99999997614 -1800 799.99999997614 0 4 1 2 4 2 3 

TShapes 25
Ve
1e-07
1398.076211 -3578.46097 12600
0 0

0101101
*
Ed
 1e-07 1 1 0
1  1 0 0 1800
6  1 1 0
6  2 2 0
0

0101000
+25 0 -25 1 *
Ve
1e-07
998.076211 -4271.281293 12600
0 0

0101101
*
Ed
 1e-07 1 1 0
1  2 0 0 1800
6  3 1 0
6  4 3 0
0

0101000
+23 0 -23 1 *
Ed
 1e-07 1 1 0
1  3 0 0 799.99999997614
6  5 1 0
6  6 4 0
6  7 1 2
0

0101000
+25 0 -23 0 *
Wi

0101100
+24 0 -22 0 -21 0 +21 1 *
Fa
0  1e-07 1 0
2  1
0101000
+20 0 *
Ve
1e-07
-560.769515 -3371.281292 12600
0 0

0101101
*
Ed
 1e-07 1 1 0
1  4 0 0 1800
6  8 3 0
6  9 5 0
0

0101000
+18 0 -18 1 *
Ed
 1e-07 1 1 0
1  5 0 0 1799.9999997968
6  10 3 0
6  11 4 0
6  12 3 2
0

0101000
+23 0 -18 0 *
Wi

0101100
+22 0 -17 0 -16 0 +16 1 *
Fa
0  1e-07 2 0
2  3
0101000
+15 0 *
Ve
1e-07
-160.769515 -2678.460969 12600
0 0

0101101
*
Ed
 1e-07 1 1 0
1  6 0 0 1800
6  13 5 0
6  14 2 0
0

0101000
+13 0 -13 1 *
Ed
 1e-07 1 1 0
1  7 0 0 799.99999997614
6  15 5 0
6  16 4 0
6  17 5 2
0

0101000
+18 0 -13 0 *
Wi

0101100
+17 0 -12 0 -11 0 +11 1 *
Fa
0  1e-07 3 0
2  5
0101000
+10 0 *
Ed
 1e-07 1 1 0
1  8 0 0 1799.9999997968
6  18 2 0
6  19 4 0
6  20 2 2
0

0101000
+13 0 -25 0 *
Wi

0101100
+12 0 -24 0 -8 0 +8 1 *
Fa
0  1e-07 4 0
2  2
0101000
+7 0 *
Wi

0101100
+21 0 +16 0 +11 0 +8 0 *
Fa
0  1e-07 5 0
2  4
0101000
+5 0 *
Sh

0101100
+19 0 +14 0 +9 0 +6 0 +4 0 -4 1 *
So

0100000
+3 0 *
Co

1100000
+2 0 *

+1 0 