
CASCADE Topology V3, (c) Open Cascade
Locations 0
Curve2ds 16
7 0 0  1 2 2  0 0  2500 0 
 0 2 2000 2
1 2500 0 0 1 
1 0 0 0 1 
1 0 1 1 0 
1 0 0 0 1 
1 10000 0 0 1 
7 0 0  1 2 2  0 0  10000 0 
 0 2 8000 2
1 10000 0 0 1 
1 0 0 0 1 
1 0 1 1 0 
7 0 0  1 2 2  0 0  2500 0 
 0 2 2000 2
1 2500 0 0 1 
1 0 0 0 1 
1 0 1 1 0 
7 0 0  1 2 2  0 0  10000 0 
 0 2 8000 2
1 0 1 1 0 
Curves 12
1 0 4000 -2000 0 0 1 
7 0 0  1 2 2  0 4000 0  8000 5000 0 
 0 2 1 2
1 8000 5000 -2500 0 0 1 
7 0 0  1 2 2  0 4000 -2000  8000 5000 -2500 
 0 2 1 2
1 0 4000 0 0 -1 0 
7 0 0  1 2 2  0 -4000 0  8000 -5000 0 
 0 2 1 2
1 8000 5000 0 0 -1 0 
1 0 -4000 0 0 0 -1 
7 0 0  1 2 2  0 -4000 -2000  8000 -5000 -2500 
 0 2 1 2
1 8000 -5000 0 0 0 -1 
1 0 -4000 -2000 0 1 0 
1 8000 -5000 -2500 0 1 0 
Polygon3D 0
PolygonOnTriangulations 24
2 1 2 
p 200000.00002 1 0 2000 
2 2 4 
p 200000.00002 1 0 2000 
2 2 3 
p 250000.000005 1 0 1 
2 1 4 
p 250000.000005 1 0 1 
2 4 3 
p 250000.000005 1 0 2500 
2 2 4 
p 250000.000005 1 0 2500 
2 1 4 
p 250000.000005 1 0 1 
2 2 3 
p 250000.000005 1 0 1 
2 1 2 
p 250000.000005 1 0 8000 
2 4 3 
p 250000.000005 1 0 8000 
2 2 3 
p 250000.000005 1 0 1 
2 1 4 
p 250000.000005 1 0 1 
2 4 3 
p 250000.000005 1 0 10000 
2 4 3 
p 250000.000005 1 0 10000 
2 1 2 
p 200000.00002 1 0 2000 
2 3 1 
p 200000.00002 1 0 2000 
2 2 3 
p 250000.000005 1 0 1 
2 1 4 
p 250000.000005 1 0 1 
2 4 3 
p 250000.000005 1 0 2500 
2 3 1 
p 250000.000005 1 0 2500 
2 1 2 
p 250000.000005 1 0 8000 
2 1 2 
p 250000.000005 1 0 8000 
2 4 3 
p 250000.000005 1 0 10000 
2 1 2 
p 250000.000005 1 0 10000 
Surfaces 6
9 0 0 0 0 1 1 2 2 2 2 0 4000 -2000  8000 5000 -2500  
0 4000 0  8000 5000 0  

0 2
2500 2

0 2
1 2

1 0 4000 -2000 -1 0 0 0 -0.97014250014533188 0.24253562503633297 0 0.24253562503633297 0.97014250014533188 
9 0 0 0 0 1 1 2 2 2 2 0 4000 0  8000 5000 0  
0 -4000 0  8000 -5000 0  

0 2
10000 2

0 2
1 2

1 8000 5000 -2500 -1 0 0 0 -0.97014250014533188 0.24253562503633297 0 0.24253562503633297 0.97014250014533188 
9 0 0 0 0 1 1 2 2 2 2 0 -4000 -2000  8000 -5000 -2500  
0 4000 -2000  8000 5000 -2500  

0 2
10000 2

0 2
1 2

9 0 0 0 0 1 1 2 2 2 2 0 -4000 0  8000 -5000 0  
0 -4000 -2000  8000 -5000 -2500  

0 2
2500 2

0 2
1 2

Triangulations 6
4 2 1 0 125
0 4000 -2000 0 4000 0 8000 5000 0 8000 5000 -2500 0 0 2500 0 2500 1 0 1 3 1 2 3 4 1 
4 2 1 0 3.21554935538437e-13
0 -4000 -2000 0 4000 -2000 0 -4000 0 0 4000 0 7761.14000116266 -1940.28500029066 0 0 8246.21125123532 0 485.071250072666 1940.28500029066 3 2 1 3 4 2 
4 2 1 0 500
0 4000 0 0 -4000 0 8000 -5000 0 8000 5000 0 0 0 10000 0 10000 1 0 1 3 1 2 3 4 1 
4 2 1 0 3.21554935538437e-13
8000 -5000 -2500 8000 5000 -2500 8000 -5000 0 8000 5000 0 9701.42500145332 -2425.35625036333 0 0 10307.7640640442 0 606.339062590832 2425.35625036333 1 4 2 3 4 1 
4 2 1 0 500
0 -4000 -2000 0 4000 -2000 8000 5000 -2500 8000 -5000 -2500 0 0 10000 0 10000 1 0 1 3 1 2 3 4 1 
4 2 1 0 125
0 -4000 0 0 -4000 -2000 8000 -5000 -2500 8000 -5000 0 0 0 2500 0 2500 1 0 1 3 1 2 3 4 1 

TShapes 34
Ve
1e-07
0 4000 -2000
0 0

0101101
*
Ve
1e-07
0 4000 0
0 0

0101101
*
Ed
 1e-07 1 1 0
1  1 0 0 2000
2  1 1 0 0 2000
4 C0 1 0 2 0
6  1 1 0
6  2 2 0
0

0101000
+34 0 -33 0 *
Ve
1e-07
8000 5000 0
0 0

0101101
*
Ed
 1e-07 1 1 0
1  2 0 0 1
2  2 1 0 0 1
2  3 3 0 0 1
4 C0 1 0 3 0
6  3 1 0
6  4 3 0
0

0101000
+33 0 -31 0 *
Ve
1e-07
8000 5000 -2500
0 0

0101101
*
Ed
 1e-07 1 1 0
1  3 0 0 2500
2  4 1 0 0 2500
4 C0 1 0 4 0
6  5 1 0
6  6 4 0
0

0101000
+29 0 -31 0 *
Ed
 1e-07 1 1 0
1  4 0 0 1
2  5 1 0 0 1
2  6 5 0 0 1
4 C0 1 0 5 0
6  7 1 0
6  8 5 0
0

0101000
+34 0 -29 0 *
Wi

0101000
+32 0 +30 0 -28 0 -27 0 *
Fa
0  1e-07 1 0
2  1
0101000
+26 0 *
Ve
1e-07
0 -4000 0
0 0

0101101
*
Ed
 1e-07 1 1 0
1  5 0 0 8000
2  7 3 0 0 8000
4 C0 3 0 2 0
6  9 3 0
6  10 2 0
0

0101000
+33 0 -24 0 *
Ve
1e-07
8000 -5000 0
0 0

0101101
*
Ed
 1e-07 1 1 0
1  6 0 0 1
2  8 3 0 0 1
2  9 6 0 0 1
4 C0 3 0 6 0
6  11 3 0
6  12 6 0
0

0101000
+24 0 -22 0 *
Ed
 1e-07 1 1 0
1  7 0 0 10000
2  10 3 0 0 10000
4 C0 3 0 4 0
6  13 3 0
6  14 4 0
0

0101000
+31 0 -22 0 *
Wi

0101000
+23 0 +21 0 -20 0 -30 0 *
Fa
0  1e-07 3 0
2  3
0101000
+19 0 *
Ve
1e-07
0 -4000 -2000
0 0

0101101
*
Ed
 1e-07 1 1 0
1  8 0 0 2000
2  11 6 0 0 2000
4 C0 6 0 2 0
6  15 6 0
6  16 2 0
0

0101000
+24 0 -17 0 *
Ve
1e-07
8000 -5000 -2500
0 0

0101101
*
Ed
 1e-07 1 1 0
1  9 0 0 1
2  12 6 0 0 1
2  13 5 0 0 1
4 C0 6 0 5 0
6  17 6 0
6  18 5 0
0

0101000
+17 0 -15 0 *
Ed
 1e-07 1 1 0
1  10 0 0 2500
2  14 6 0 0 2500
4 C0 6 0 4 0
6  19 6 0
6  20 4 0
0

0101000
+22 0 -15 0 *
Wi

0101000
+16 0 +14 0 -13 0 -21 0 *
Fa
0  1e-07 6 0
2  6
0101000
+12 0 *
Ed
 1e-07 1 1 0
1  11 0 0 8000
2  15 5 0 0 8000
4 C0 5 0 2 0
6  21 5 0
6  22 2 0
0

0101000
+17 0 -34 0 *
Ed
 1e-07 1 1 0
1  12 0 0 10000
2  16 5 0 0 10000
4 C0 5 0 4 0
6  23 5 0
6  24 4 0
0

0101000
+15 0 -29 0 *
Wi

0101000
+10 0 +27 0 -9 0 -14 0 *
Fa
0  1e-07 5 0
2  5
0101000
+8 0 *
Wi

0101100
+32 0 +23 0 +16 0 +10 0 *
Fa
0  1e-07 2 0
2  2
0101000
-6 0 *
Wi

0101100
+28 0 +20 0 +13 0 +9 0 *
Fa
0  1e-07 4 0
2  4
0101000
-4 0 *
Sh

0101100
+25 0 +18 0 +11 0 +7 0 +5 0 -3 0 *
So

1100100
+2 0 *

+1 0 