
CASCADE Topology V3, (c) Open Cascade
Locations 2
1
              1               0               0               0 
              0               1               0               0 
              0               0               1            2000 
2  1 -1 0
Curve2ds 0
Curves 8
1 4598.0762110000005 1964.1016159999999 -2000 0 0 1 
1 598.07621099999994 -4964.1016159999999 -2000 0 0 1 
1 4598.0762110000005 1964.1016159999999 -2000 -0.49999999990665922 -0.86602540383832893 0 
1 -960.76951499999996 -4064.101615 -2000 0 0 1 
1 598.07621099999994 -4964.1016159999999 -2000 -0.86602540343109968 0.50000000061200089 0 
1 3039.2304840000002 2864.101615 -2000 0 0 1 
1 -960.76951499999996 -4064.101615 -2000 0.4999999999211624 0.86602540382995563 0 
1 3039.2304840000002 2864.101615 -2000 0.86602540405111383 -0.49999999953810503 0 
Polygon3D 0
PolygonOnTriangulations 20
2 1 2 
p 195705.08078 1 0 2000 
2 4 3 
p 195705.08078 1 0 2000 
2 4 3 
p 195705.08078 1 0 2000 
2 1 2 
p 195705.08078 1 0 2000 
2 1 4 
p 195705.08078 1 0 8000.00000149345 
2 1 2 
p 195705.08078 1 0 8000.00000149345 
2 2 3 
p 195705.08078 1 0 8000.00000149345 
2 4 3 
p 195705.08078 1 0 2000 
2 1 2 
p 195705.08078 1 0 2000 
2 1 4 
p 155884.57262 1 0 1799.9999997968 
2 2 3 
p 155884.57262 1 0 1799.9999997968 
2 2 3 
p 155884.57262 1 0 1799.9999997968 
2 4 3 
p 195705.08078 1 0 2000 
2 1 2 
p 195705.08078 1 0 2000 
2 1 4 
p 195705.08078 1 0 7999.9999992614 
2 3 4 
p 195705.08078 1 0 7999.9999992614 
2 2 3 
p 195705.08078 1 0 7999.9999992614 
2 1 4 
p 155884.57272 1 0 1799.99999966282 
2 4 1 
p 155884.57272 1 0 1799.99999966282 
2 2 3 
p 155884.57272 1 0 1799.99999966282 
Surfaces 5
1 4598.0762110000005 1964.1016159999999 -2000 0.86602540383832904 -0.49999999990665928 0 -0.49999999990665928 -0.86602540383832904 0 0 -0 -1 
1 598.07621099999994 -4964.1016159999999 -2000 -0.50000000061200101 -0.86602540343109979 0 -0.86602540343109979 0.50000000061200101 0 -0 0 -1 
1 -960.76951499999996 -4064.101615 -2000 -0.86602540382995563 0.4999999999211624 0 0.4999999999211624 0.86602540382995563 0 0 0 -1 
1 3039.2304840000002 2864.101615 -2000 0.49999999953810503 0.86602540405111383 -0 0.86602540405111383 -0.49999999953810503 0 0 -0 -1 
1 1818.6533478250899 -1050.0000000749244 -2000 -0 -0 -1 -1 0 0 0 1 -0 
Triangulations 5
4 2 1 0 1.3877247074258e-12
4598.076211 1964.101616 -2000 4598.076211 1964.101616 0 598.076211 -4964.101616 0 598.076211 -4964.101616 -2000 0 0 0 -2000 8000.00000149345 -2000 8000.00000149345 0 4 1 2 4 2 3 
4 2 1 0 5.08422994585042e-13
3039.230484 2864.101615 -2000 3039.230484 2864.101615 0 4598.076211 1964.101616 0 4598.076211 1964.101616 -2000 0 0 0 -2000 1799.99999966282 -2000 1799.99999966282 0 4 1 2 4 2 3 
4 2 1 0 3.06111178766429e-13
598.076211 -4964.101616 -2000 598.076211 -4964.101616 0 -960.769515 -4064.101615 0 -960.769515 -4064.101615 -2000 0 0 0 -2000 1799.9999997968 -2000 1799.9999997968 0 4 1 2 4 2 3 
4 2 1 0 5.08422994585042e-13
4598.076211 1964.101616 -2000 598.076211 -4964.101616 -2000 -960.769515 -4064.101615 -2000 3039.230484 2864.101615 -2000 -2779.42286317491 3014.10161607492 1220.57713682509 -3914.10161592508 2779.42286282509 -3014.10161492508 -1220.57713617491 3914.10161507492 1 2 3 4 1 3 
4 2 1 0 7.36774916095767e-13
-960.769515 -4064.101615 -2000 -960.769515 -4064.101615 0 3039.230484 2864.101615 0 3039.230484 2864.101615 -2000 0 0 0 -2000 7999.9999992614 -2000 7999.9999992614 0 4 1 2 4 2 3 

TShapes 25
Ve
1e-07
4598.076211 1964.101616 -2000
0 0

0101101
*
Ed
 1e-07 1 1 0
1  1 0 0 2000
6  1 1 0
6  2 2 0
0

0101000
+25 0 -25 1 *
Ve
1e-07
598.076211 -4964.101616 -2000
0 0

0101101
*
Ed
 1e-07 1 1 0
1  2 0 0 2000
6  3 1 0
6  4 3 0
0

0101000
+23 0 -23 1 *
Ed
 1e-07 1 1 0
1  3 0 0 8000.00000149345
6  5 1 0
6  6 4 0
6  7 1 2
0

0101000
+25 0 -23 0 *
Wi

0101100
+24 0 -22 0 -21 0 +21 1 *
Fa
0  1e-07 1 0
2  1
0101000
+20 0 *
Ve
1e-07
-960.769515 -4064.101615 -2000
0 0

0101101
*
Ed
 1e-07 1 1 0
1  4 0 0 2000
6  8 3 0
6  9 5 0
0

0101000
+18 0 -18 1 *
Ed
 1e-07 1 1 0
1  5 0 0 1799.9999997968
6  10 3 0
6  11 4 0
6  12 3 2
0

0101000
+23 0 -18 0 *
Wi

0101100
+22 0 -17 0 -16 0 +16 1 *
Fa
0  1e-07 2 0
2  3
0101000
+15 0 *
Ve
1e-07
3039.230484 2864.101615 -2000
0 0

0101101
*
Ed
 1e-07 1 1 0
1  6 0 0 2000
6  13 5 0
6  14 2 0
0

0101000
+13 0 -13 1 *
Ed
 1e-07 1 1 0
1  7 0 0 7999.9999992614
6  15 5 0
6  16 4 0
6  17 5 2
0

0101000
+18 0 -13 0 *
Wi

0101100
+17 0 -12 0 -11 0 +11 1 *
Fa
0  1e-07 3 0
2  5
0101000
+10 0 *
Ed
 1e-07 1 1 0
1  8 0 0 1799.99999966282
6  18 2 0
6  19 4 0
6  20 2 2
0

0101000
+13 0 -25 0 *
Wi

0101100
+12 0 -24 0 -8 0 +8 1 *
Fa
0  1e-07 4 0
2  2
0101000
+7 0 *
Wi

0101100
+21 0 +16 0 +11 0 +8 0 *
Fa
0  1e-07 5 0
2  4
0101000
+5 0 *
Sh

0101100
+19 0 +14 0 +9 0 +6 0 +4 0 -4 1 *
So

0100000
+3 0 *
Co

1100000
+2 0 *

+1 0 