
CASCADE Topology V3, (c) Open Cascade
Locations 2
1
              1               0               0               0 
              0               1               0               0 
              0               0               1            2000 
2  1 -1 0
Curve2ds 0
Curves 8
1 2787.941965 3496.767022 -2000 0 0 1 
1 1124.6484370000001 -4328.4137859999992 -2000 0 0 1 
1 2787.941965 3496.767022 -2000 -0.20791169093798675 -0.97814760070825058 0 
1 -420.41694100000001 -4000 -2000 0 0 1 
1 1124.6484370000001 -4328.4137859999992 -2000 -0.97814760051532956 0.20791169184560818 0 
1 420.41694100000001 4000 -2000 0 0 1 
1 -420.41694100000001 -4000 -2000 0.10452846325223324 0.9945218953698941 0 
1 420.41694100000001 4000 -2000 0.97814760079843333 -0.20791169051370956 0 
Polygon3D 0
PolygonOnTriangulations 20
2 1 2 
p 200000.00002 1 0 2000 
2 4 3 
p 200000.00002 1 0 2000 
2 4 3 
p 200000.00002 1 0 2000 
2 1 2 
p 200000.00002 1 0 2000 
2 1 4 
p 208210.344655 1 0 8000.00000238614 
2 1 2 
p 208210.344655 1 0 8000.00000238614 
2 2 3 
p 208210.344655 1 0 8000.00000238614 
2 4 3 
p 200000.00002 1 0 2000 
2 1 2 
p 200000.00002 1 0 2000 
2 1 4 
p 154506.53782 1 0 1579.58305800269 
2 2 3 
p 154506.53782 1 0 1579.58305800269 
2 2 3 
p 154506.53782 1 0 1579.58305800269 
2 4 3 
p 200000.00002 1 0 2000 
2 1 2 
p 200000.00002 1 0 2000 
2 1 4 
p 208210.344655 1 0 8044.06623649502 
2 3 4 
p 208210.344655 1 0 8044.06623649502 
2 2 3 
p 208210.344655 1 0 8044.06623649502 
2 1 4 
p 208210.344655 1 0 2420.41694123408 
2 4 1 
p 208210.344655 1 0 2420.41694123408 
2 2 3 
p 208210.344655 1 0 2420.41694123408 
Surfaces 5
1 2787.941965 3496.767022 -2000 0.97814760070825058 -0.20791169093798675 0 -0.20791169093798675 -0.97814760070825058 0 0 -0 -1 
1 1124.6484370000001 -4328.4137859999992 -2000 -0.2079116918456082 -0.97814760051532967 0 -0.97814760051532967 0.2079116918456082 0 -0 0 -1 
1 -420.41694100000001 -4000 -2000 -0.9945218953698941 0.10452846325223324 0 0.10452846325223324 0.9945218953698941 0 0 0 -1 
1 420.41694100000001 4000 -2000 0.20791169051370958 0.97814760079843344 -0 0.97814760079843344 -0.20791169051370958 0 0 -0 -1 
1 1002.2587517337936 -41.490920706727664 -1999.9999999999998 -0 -0 -1 -1 0 0 0 1 -0 
Triangulations 5
4 2 1 0 2.54211497292521e-13
2787.941965 3496.767022 -2000 2787.941965 3496.767022 0 1124.648437 -4328.413786 0 1124.648437 -4328.413786 -2000 0 0 0 -2000 8000.00000238614 -2000 8000.00000238614 0 4 1 2 4 2 3 
4 2 1 0 4.68742840168677e-13
420.416941 4000 -2000 420.416941 4000 0 2787.941965 3496.767022 0 2787.941965 3496.767022 -2000 0 0 0 -2000 2420.41694123408 -2000 2420.41694123408 0 4 1 2 4 2 3 
4 2 1 0 2.54211497292521e-13
1124.648437 -4328.413786 -2000 1124.648437 -4328.413786 0 -420.416941 -4000 0 -420.416941 -4000 -2000 0 0 0 -2000 1579.58305800269 -2000 1579.58305800269 0 4 1 2 4 2 3 
4 2 1 0 3.21554935538437e-13
2787.941965 3496.767022 -2000 1124.648437 -4328.413786 -2000 -420.416941 -4000 -2000 420.416941 4000 -2000 -1785.68321326621 3538.25794270673 -122.389685266206 -4286.92286529327 1422.67569273379 -3958.50907929327 581.841810733794 4041.49092070673 1 2 3 4 1 3 
4 2 1 0 3.21554935538437e-13
-420.416941 -4000 -2000 -420.416941 -4000 0 420.416941 4000 0 420.416941 4000 -2000 0 0 0 -2000 8044.06623649502 -2000 8044.06623649502 0 4 1 2 4 2 3 

TShapes 25
Ve
1e-07
2787.941965 3496.767022 -2000
0 0

0101101
*
Ed
 1e-07 1 1 0
1  1 0 0 2000
6  1 1 0
6  2 2 0
0

0101000
+25 0 -25 1 *
Ve
1e-07
1124.648437 -4328.413786 -2000
0 0

0101101
*
Ed
 1e-07 1 1 0
1  2 0 0 2000
6  3 1 0
6  4 3 0
0

0101000
+23 0 -23 1 *
Ed
 1e-07 1 1 0
1  3 0 0 8000.00000238614
6  5 1 0
6  6 4 0
6  7 1 2
0

0101000
+25 0 -23 0 *
Wi

0101100
+24 0 -22 0 -21 0 +21 1 *
Fa
0  1e-07 1 0
2  1
0101000
+20 0 *
Ve
1e-07
-420.416941 -4000 -2000
0 0

0101101
*
Ed
 1e-07 1 1 0
1  4 0 0 2000
6  8 3 0
6  9 5 0
0

0101000
+18 0 -18 1 *
Ed
 1e-07 1 1 0
1  5 0 0 1579.58305800269
6  10 3 0
6  11 4 0
6  12 3 2
0

0101000
+23 0 -18 0 *
Wi

0101100
+22 0 -17 0 -16 0 +16 1 *
Fa
0  1e-07 2 0
2  3
0101000
+15 0 *
Ve
1e-07
420.416941 4000 -2000
0 0

0101101
*
Ed
 1e-07 1 1 0
1  6 0 0 2000
6  13 5 0
6  14 2 0
0

0101000
+13 0 -13 1 *
Ed
 1e-07 1 1 0
1  7 0 0 8044.06623649502
6  15 5 0
6  16 4 0
6  17 5 2
0

0101000
+18 0 -13 0 *
Wi

0101100
+17 0 -12 0 -11 0 +11 1 *
Fa
0  1e-07 3 0
2  5
0101000
+10 0 *
Ed
 1e-07 1 1 0
1  8 0 0 2420.41694123408
6  18 2 0
6  19 4 0
6  20 2 2
0

0101000
+13 0 -25 0 *
Wi

0101100
+12 0 -24 0 -8 0 +8 1 *
Fa
0  1e-07 4 0
2  2
0101000
+7 0 *
Wi

0101100
+21 0 +16 0 +11 0 +8 0 *
Fa
0  1e-07 5 0
2  4
0101000
+5 0 *
Sh

0101100
+19 0 +14 0 +9 0 +6 0 +4 0 -4 1 *
So

0100000
+3 0 *
Co

1100000
+2 0 *

+1 0 