
CASCADE Topology V3, (c) Open Cascade
Locations 2
1
              1               0               0               0 
              0               1               0               0 
              0               0               1            1800 
2  1 -1 0
Curve2ds 0
Curves 8
1 1457.307143 -2763.3776239999997 12600 0 0 1 
1 1290.9777899999999 -3545.8957049999999 12600 0 0 1 
1 1457.307143 -2763.3776239999997 12600 -0.20791169112633789 -0.97814760066821527 0 
1 -336.33355299999999 -3200 12600 0 0 1 
1 1290.9777899999999 -3545.8957049999999 12600 -0.97814760059135886 0.20791169148791858 0 
1 -252.25016500000004 -2400 12600 0 0 1 
1 -336.33355299999999 -3200 12600 0.10452846300631928 0.99452189539574065 0 
1 -252.25016500000004 -2400 12600 0.97814760066007278 -0.20791169116464497 0 
Polygon3D 0
PolygonOnTriangulations 20
2 1 2 
p 45000.000005 1 0 1800 
2 4 3 
p 45000.000005 1 0 1800 
2 4 3 
p 45000.000005 1 0 1800 
2 1 2 
p 45000.000005 1 0 1800 
2 1 4 
p 45000.000005 1 0 800.000000475826 
2 1 2 
p 45000.000005 1 0 800.000000475826 
2 2 3 
p 45000.000005 1 0 800.000000475826 
2 4 3 
p 45000.000005 1 0 1800 
2 1 2 
p 45000.000005 1 0 1800 
2 1 4 
p 45000.000005 1 0 1663.66644667551 
2 2 3 
p 45000.000005 1 0 1663.66644667551 
2 2 3 
p 45000.000005 1 0 1663.66644667551 
2 4 3 
p 45000.000005 1 0 1800 
2 1 2 
p 45000.000005 1 0 1800 
2 1 4 
p 45000.000005 1 0 804.406623628597 
2 3 4 
p 45000.000005 1 0 804.406623628597 
2 2 3 
p 45000.000005 1 0 804.406623628597 
2 1 4 
p 45000.000005 1 0 1747.74983534832 
2 4 1 
p 45000.000005 1 0 1747.74983534832 
2 2 3 
p 45000.000005 1 0 1747.74983534832 
Surfaces 5
1 1457.307143 -2763.3776239999997 12600 0.97814760066821527 -0.20791169112633789 0 -0.20791169112633789 -0.97814760066821527 0 0 -0 -1 
1 1290.9777899999999 -3545.8957049999999 12600 -0.20791169148791858 -0.97814760059135886 0 -0.97814760059135886 0.20791169148791858 0 -0 0 -1 
1 -336.33355299999999 -3200 12600 -0.99452189539574076 0.10452846300631929 0 0.10452846300631929 0.99452189539574076 0 0 0 -1 
1 -252.25016500000004 -2400 12600 0.207911691164645 0.97814760066007289 -0 0.97814760066007289 -0.207911691164645 0 0 -0 -1 
1 540.24186342992391 -2970.5303641683663 12599.999999999996 -0 -0 -1 -1 0 0 0 1 -0 
Triangulations 5
4 2 1 0 4.54747350886464e-13
1457.307143 -2763.377624 12600 1457.307143 -2763.377624 14400 1290.97779 -3545.895705 14400 1290.97779 -3545.895705 12600 0 0 0 -1800 800.000000475826 -1800 800.000000475826 0 4 1 2 4 2 3 
4 2 1 0 5.6843418860808e-14
-252.250165 -2400 12600 -252.250165 -2400 14400 1457.307143 -2763.377624 14400 1457.307143 -2763.377624 12600 0 0 0 -1800 1747.74983534832 -1800 1747.74983534832 0 4 1 2 4 2 3 
4 2 1 0 0
1290.97779 -3545.895705 12600 1290.97779 -3545.895705 14400 -336.333553 -3200 14400 -336.333553 -3200 12600 0 0 0 -1800 1663.66644667551 -1800 1663.66644667551 0 4 1 2 4 2 3 
4 2 1 0 3.66673098662207e-12
1457.307143 -2763.377624 12600 1290.97779 -3545.895705 12600 -336.333553 -3200 12600 -252.250165 -2400 12600 -917.065279570076 207.152740168367 -750.735926570076 -575.365340831634 876.575416429924 -229.469635831634 792.492028429924 570.530364168366 3 1 2 4 1 3 
4 2 1 0 5.6843418860808e-14
-336.333553 -3200 12600 -336.333553 -3200 14400 -252.250165 -2400 14400 -252.250165 -2400 12600 0 0 0 -1800 804.406623628597 -1800 804.406623628597 0 4 1 2 4 2 3 

TShapes 25
Ve
1e-07
1457.307143 -2763.377624 12600
0 0

0101101
*
Ed
 1e-07 1 1 0
1  1 0 0 1800
6  1 1 0
6  2 2 0
0

0101000
+25 0 -25 1 *
Ve
1e-07
1290.97779 -3545.895705 12600
0 0

0101101
*
Ed
 1e-07 1 1 0
1  2 0 0 1800
6  3 1 0
6  4 3 0
0

0101000
+23 0 -23 1 *
Ed
 1e-07 1 1 0
1  3 0 0 800.000000475826
6  5 1 0
6  6 4 0
6  7 1 2
0

0101000
+25 0 -23 0 *
Wi

0101100
+24 0 -22 0 -21 0 +21 1 *
Fa
0  1e-07 1 0
2  1
0101000
+20 0 *
Ve
1e-07
-336.333553 -3200 12600
0 0

0101101
*
Ed
 1e-07 1 1 0
1  4 0 0 1800
6  8 3 0
6  9 5 0
0

0101000
+18 0 -18 1 *
Ed
 1e-07 1 1 0
1  5 0 0 1663.66644667551
6  10 3 0
6  11 4 0
6  12 3 2
0

0101000
+23 0 -18 0 *
Wi

0101100
+22 0 -17 0 -16 0 +16 1 *
Fa
0  1e-07 2 0
2  3
0101000
+15 0 *
Ve
1e-07
-252.250165 -2400 12600
0 0

0101101
*
Ed
 1e-07 1 1 0
1  6 0 0 1800
6  13 5 0
6  14 2 0
0

0101000
+13 0 -13 1 *
Ed
 1e-07 1 1 0
1  7 0 0 804.406623628597
6  15 5 0
6  16 4 0
6  17 5 2
0

0101000
+18 0 -13 0 *
Wi

0101100
+17 0 -12 0 -11 0 +11 1 *
Fa
0  1e-07 3 0
2  5
0101000
+10 0 *
Ed
 1e-07 1 1 0
1  8 0 0 1747.74983534832
6  18 2 0
6  19 4 0
6  20 2 2
0

0101000
+13 0 -25 0 *
Wi

0101100
+12 0 -24 0 -8 0 +8 1 *
Fa
0  1e-07 4 0
2  2
0101000
+7 0 *
Wi

0101100
+21 0 +16 0 +11 0 +8 0 *
Fa
0  1e-07 5 0
2  4
0101000
+5 0 *
Sh

0101100
+19 0 +14 0 +9 0 +6 0 +4 0 -4 1 *
So

0100000
+3 0 *
Co

1100000
+2 0 *

+1 0 