
CASCADE Topology V3, (c) Open Cascade
Locations 2
1
              1               0               0               0 
              0               1               0               0 
              0               0               1             600 
2  1 -1 0
Curve2ds 0
Curves 8
1 2621.6126119999999 2714.2489410000003 12000 0 0 1 
1 1290.9777899999999 -3545.8957049999999 12000 0 0 1 
1 2621.6126119999999 2714.2489410000003 12000 -0.20791169089089895 -0.97814760071825935 0 
1 -336.33355299999999 -3200 12000 0 0 1 
1 1290.9777899999999 -3545.8957049999999 12000 -0.97814760059135886 0.20791169148791858 0 
1 336.33355299999999 3200 12000 0 0 1 
1 -336.33355299999999 -3200 12000 0.10452846331371171 0.9945218953634325 0 
1 336.33355299999999 3200 12000 0.97814760075448293 -0.20791169072048063 0 
Polygon3D 0
PolygonOnTriangulations 20
2 1 2 
p 60000.0000200002 1 0 600 
2 4 3 
p 60000.0000200002 1 0 600 
2 4 3 
p 60000.0000200002 1 0 600 
2 1 2 
p 60000.0000200002 1 0 600 
2 1 4 
p 168647.39263 1 0 6400.00000143449 
2 1 2 
p 168647.39263 1 0 6400.00000143449 
2 2 3 
p 168647.39263 1 0 6400.00000143449 
2 4 3 
p 60000.0000200002 1 0 600 
2 1 2 
p 60000.0000200002 1 0 600 
2 1 4 
p 162731.13432 1 0 1663.66644667551 
2 2 3 
p 162731.13432 1 0 1663.66644667551 
2 2 3 
p 162731.13432 1 0 1663.66644667551 
2 4 3 
p 60000.0000200002 1 0 600 
2 1 2 
p 60000.0000200002 1 0 600 
2 1 4 
p 168647.39263 1 0 6435.25298923783 
2 3 4 
p 168647.39263 1 0 6435.25298923783 
2 2 3 
p 168647.39263 1 0 6435.25298923783 
2 1 4 
p 168647.39263 1 0 2336.33355256127 
2 4 1 
p 168647.39263 1 0 2336.33355256127 
2 2 3 
p 168647.39263 1 0 2336.33355256127 
Surfaces 5
1 2621.6126119999999 2714.2489410000003 12000 0.97814760071825935 -0.20791169089089895 0 -0.20791169089089895 -0.97814760071825935 0 0 -0 -1 
1 1290.9777899999999 -3545.8957049999999 12000 -0.20791169148791858 -0.97814760059135886 0 -0.97814760059135886 0.20791169148791858 0 -0 0 -1 
1 -336.33355299999999 -3200 12000 -0.9945218953634325 0.10452846331371171 0 0.10452846331371171 0.9945218953634325 0 0 0 -1 
1 336.33355299999999 3200 12000 0.20791169072048063 0.97814760075448293 -0 0.97814760075448293 -0.20791169072048063 0 0 -0 -1 
1 996.11027693151823 -81.014564810837342 12000 -0 -0 -1 -1 0 0 0 1 -0 
Triangulations 5
4 2 1 0 2.27373675443232e-13
2621.612612 2714.248941 12000 2621.612612 2714.248941 12600 1290.97779 -3545.895705 12600 1290.97779 -3545.895705 12000 0 0 0 -600 6400.00000143449 -600 6400.00000143449 0 3 1 2 4 1 3 
4 2 1 0 4.54747350886464e-13
336.333553 3200 12000 336.333553 3200 12600 2621.612612 2714.248941 12600 2621.612612 2714.248941 12000 0 0 0 -600 2336.33355256127 -600 2336.33355256127 0 4 1 2 4 2 3 
4 2 1 0 0
1290.97779 -3545.895705 12000 1290.97779 -3545.895705 12600 -336.333553 -3200 12600 -336.333553 -3200 12000 0 0 0 -600 1663.66644667551 -600 1663.66644667551 0 3 1 2 4 1 3 
4 2 1 0 2.27373675443232e-13
2621.612612 2714.248941 12000 1290.97779 -3545.895705 12000 -336.333553 -3200 12000 336.333553 3200 12000 -1625.50233506848 2795.26350581084 -294.867513068482 -3464.88114018916 1332.44382993152 -3118.98543518916 659.776723931518 3281.01456481084 1 2 3 4 1 3 
4 2 1 0 2.48181908042582e-13
-336.333553 -3200 12000 -336.333553 -3200 12600 336.333553 3200 12600 336.333553 3200 12000 0 0 0 -600 6435.25298923783 -600 6435.25298923783 0 4 1 2 4 2 3 

TShapes 25
Ve
1e-07
2621.612612 2714.248941 12000
0 0

0101101
*
Ed
 1e-07 1 1 0
1  1 0 0 600
6  1 1 0
6  2 2 0
0

0101000
+25 0 -25 1 *
Ve
1e-07
1290.97779 -3545.895705 12000
0 0

0101101
*
Ed
 1e-07 1 1 0
1  2 0 0 600
6  3 1 0
6  4 3 0
0

0101000
+23 0 -23 1 *
Ed
 1e-07 1 1 0
1  3 0 0 6400.00000143449
6  5 1 0
6  6 4 0
6  7 1 2
0

0101000
+25 0 -23 0 *
Wi

0101100
+24 0 -22 0 -21 0 +21 1 *
Fa
0  1e-07 1 0
2  1
0101000
+20 0 *
Ve
1e-07
-336.333553 -3200 12000
0 0

0101101
*
Ed
 1e-07 1 1 0
1  4 0 0 600
6  8 3 0
6  9 5 0
0

0101000
+18 0 -18 1 *
Ed
 1e-07 1 1 0
1  5 0 0 1663.66644667551
6  10 3 0
6  11 4 0
6  12 3 2
0

0101000
+23 0 -18 0 *
Wi

0101100
+22 0 -17 0 -16 0 +16 1 *
Fa
0  1e-07 2 0
2  3
0101000
+15 0 *
Ve
1e-07
336.333553 3200 12000
0 0

0101101
*
Ed
 1e-07 1 1 0
1  6 0 0 600
6  13 5 0
6  14 2 0
0

0101000
+13 0 -13 1 *
Ed
 1e-07 1 1 0
1  7 0 0 6435.25298923783
6  15 5 0
6  16 4 0
6  17 5 2
0

0101000
+18 0 -13 0 *
Wi

0101100
+17 0 -12 0 -11 0 +11 1 *
Fa
0  1e-07 3 0
2  5
0101000
+10 0 *
Ed
 1e-07 1 1 0
1  8 0 0 2336.33355256127
6  18 2 0
6  19 4 0
6  20 2 2
0

0101000
+13 0 -25 0 *
Wi

0101100
+12 0 -24 0 -8 0 +8 1 *
Fa
0  1e-07 4 0
2  2
0101000
+7 0 *
Wi

0101100
+21 0 +16 0 +11 0 +8 0 *
Fa
0  1e-07 5 0
2  4
0101000
+5 0 *
Sh

0101100
+19 0 +14 0 +9 0 +6 0 +4 0 -4 1 *
So

0100000
+3 0 *
Co

1100000
+2 0 *

+1 0 