
CASCADE Topology V3, (c) Open Cascade
Locations 2
1
              1               0               0               0 
              0               1               0               0 
              0               0               1             600 
2  1 -1 0
Curve2ds 0
Curves 8
1 4198.0762109999996 1271.281293 12000 0 0 1 
1 998.07621099999994 -4271.281293 12000 0 0 1 
1 4198.0762109999996 1271.281293 12000 -0.49999999987959581 -0.86602540385395399 0 
1 -560.76951500000007 -3371.2812920000001 12000 0 0 1 
1 998.07621099999994 -4271.281293 12000 -0.86602540343109968 0.50000000061200089 0 
1 2639.2304840000002 2171.2812920000001 12000 0 0 1 
1 -560.76951500000007 -3371.2812920000001 12000 0.49999999989772481 0.86602540384348714 0 
1 2639.2304840000002 2171.2812920000001 12000 0.86602540405111372 -0.4999999995381052 0 
Polygon3D 0
PolygonOnTriangulations 20
2 1 2 
p 60000.0000200002 1 0 600 
2 4 3 
p 60000.0000200002 1 0 600 
2 4 3 
p 60000.0000200002 1 0 600 
2 1 2 
p 60000.0000200002 1 0 600 
2 1 4 
p 161064.06463 1 0 6400.00000154117 
2 1 2 
p 161064.06463 1 0 6400.00000154117 
2 2 3 
p 161064.06463 1 0 6400.00000154117 
2 4 3 
p 60000.0000200002 1 0 600 
2 1 2 
p 60000.0000200002 1 0 600 
2 1 4 
p 155884.57262 1 0 1799.9999997968 
2 2 3 
p 155884.57262 1 0 1799.9999997968 
2 2 3 
p 155884.57262 1 0 1799.9999997968 
2 4 3 
p 60000.0000200002 1 0 600 
2 1 2 
p 60000.0000200002 1 0 600 
2 1 4 
p 161064.06463 1 0 6399.99999930912 
2 3 4 
p 161064.06463 1 0 6399.99999930912 
2 2 3 
p 161064.06463 1 0 6399.99999930912 
2 1 4 
p 155884.57272 1 0 1799.99999966282 
2 4 1 
p 155884.57272 1 0 1799.99999966282 
2 2 3 
p 155884.57272 1 0 1799.99999966282 
Surfaces 5
1 4198.0762109999996 1271.281293 12000 0.86602540385395399 -0.49999999987959581 0 -0.49999999987959581 -0.86602540385395399 0 0 -0 -1 
1 998.07621099999994 -4271.281293 12000 -0.50000000061200101 -0.86602540343109979 0 -0.86602540343109979 0.50000000061200101 0 -0 0 -1 
1 -560.76951500000007 -3371.2812920000001 12000 -0.86602540384348725 0.49999999989772487 0 0.49999999989772487 0.86602540384348725 0 0 0 -1 
1 2639.2304840000002 2171.2812920000001 12000 0.4999999995381052 0.86602540405111372 -0 0.86602540405111372 -0.4999999995381052 0 0 -0 -1 
1 1818.6533478430092 -1050.0000000838845 12000 -0 -0 -1 -1 0 0 0 1 -0 
Triangulations 5
4 2 1 0 1.28621974215375e-12
4198.076211 1271.281293 12000 4198.076211 1271.281293 12600 998.076211 -4271.281293 12600 998.076211 -4271.281293 12000 0 0 0 -600 6400.00000154117 -600 6400.00000154117 0 3 1 2 4 1 3 
4 2 1 0 5.08422994585042e-13
2639.230484 2171.281292 12000 2639.230484 2171.281292 12600 4198.076211 1271.281293 12600 4198.076211 1271.281293 12000 0 0 0 -600 1799.99999966282 -600 1799.99999966282 0 3 1 2 4 1 3 
4 2 1 0 1.49213974509621e-13
998.076211 -4271.281293 12000 998.076211 -4271.281293 12600 -560.769515 -3371.281292 12600 -560.769515 -3371.281292 12000 0 0 0 -600 1799.9999997968 -600 1799.9999997968 0 4 1 2 4 2 3 
4 2 1 0 7.46069872548105e-14
4198.076211 1271.281293 12000 998.076211 -4271.281293 12000 -560.769515 -3371.281292 12000 2639.230484 2171.281292 12000 -2379.42286315699 2321.28129308388 820.577136843009 -3221.28129291612 2379.42286284301 -2321.28129191612 -820.577136156991 3221.28129208388 3 1 2 4 1 3 
4 2 1 0 5.08422994585042e-13
-560.769515 -3371.281292 12000 -560.769515 -3371.281292 12600 2639.230484 2171.281292 12600 2639.230484 2171.281292 12000 0 0 0 -600 6399.99999930912 -600 6399.99999930912 0 4 1 2 4 2 3 

TShapes 25
Ve
1e-07
4198.076211 1271.281293 12000
0 0

0101101
*
Ed
 1e-07 1 1 0
1  1 0 0 600
6  1 1 0
6  2 2 0
0

0101000
+25 0 -25 1 *
Ve
1e-07
998.076211 -4271.281293 12000
0 0

0101101
*
Ed
 1e-07 1 1 0
1  2 0 0 600
6  3 1 0
6  4 3 0
0

0101000
+23 0 -23 1 *
Ed
 1e-07 1 1 0
1  3 0 0 6400.00000154117
6  5 1 0
6  6 4 0
6  7 1 2
0

0101000
+25 0 -23 0 *
Wi

0101100
+24 0 -22 0 -21 0 +21 1 *
Fa
0  1e-07 1 0
2  1
0101000
+20 0 *
Ve
1e-07
-560.769515 -3371.281292 12000
0 0

0101101
*
Ed
 1e-07 1 1 0
1  4 0 0 600
6  8 3 0
6  9 5 0
0

0101000
+18 0 -18 1 *
Ed
 1e-07 1 1 0
1  5 0 0 1799.9999997968
6  10 3 0
6  11 4 0
6  12 3 2
0

0101000
+23 0 -18 0 *
Wi

0101100
+22 0 -17 0 -16 0 +16 1 *
Fa
0  1e-07 2 0
2  3
0101000
+15 0 *
Ve
1e-07
2639.230484 2171.281292 12000
0 0

0101101
*
Ed
 1e-07 1 1 0
1  6 0 0 600
6  13 5 0
6  14 2 0
0

0101000
+13 0 -13 1 *
Ed
 1e-07 1 1 0
1  7 0 0 6399.99999930912
6  15 5 0
6  16 4 0
6  17 5 2
0

0101000
+18 0 -13 0 *
Wi

0101100
+17 0 -12 0 -11 0 +11 1 *
Fa
0  1e-07 3 0
2  5
0101000
+10 0 *
Ed
 1e-07 1 1 0
1  8 0 0 1799.99999966282
6  18 2 0
6  19 4 0
6  20 2 2
0

0101000
+13 0 -25 0 *
Wi

0101100
+12 0 -24 0 -8 0 +8 1 *
Fa
0  1e-07 4 0
2  2
0101000
+7 0 *
Wi

0101100
+21 0 +16 0 +11 0 +8 0 *
Fa
0  1e-07 5 0
2  4
0101000
+5 0 *
Sh

0101100
+19 0 +14 0 +9 0 +6 0 +4 0 -4 1 *
So

0100000
+3 0 *
Co

1100000
+2 0 *

+1 0 