
CASCADE Topology V3, (c) Open Cascade
Locations 2
1
              1               0               0               0 
              0               1               0               0 
              0               0               1             600 
2  1 -1 0
Curve2ds 0
Curves 8
1 336.33355299999999 3200 12000 0 0 1 
1 -336.33355299999999 -3200 12000 0 0 1 
1 336.33355299999999 3200 12000 -0.10452846331371171 -0.9945218953634325 0 
1 -2000 -3200 12000 0 0 1 
1 -336.33355299999999 -3200 12000 -1 0 0 
1 -2000 3200 12000 0 0 1 
1 -2000 -3200 12000 0 1 0 
1 -2000 3200 12000 1 0 0 
Polygon3D 0
PolygonOnTriangulations 20
2 1 2 
p 60000.0000200002 1 0 600 
2 4 3 
p 60000.0000200002 1 0 600 
2 4 3 
p 60000.0000200002 1 0 600 
2 1 2 
p 60000.0000200002 1 0 600 
2 1 4 
p 160000.000005 1 0 6435.25298923783 
2 1 2 
p 160000.000005 1 0 6435.25298923783 
2 2 3 
p 160000.000005 1 0 6435.25298923783 
2 4 3 
p 60000.0000200002 1 0 600 
2 1 2 
p 60000.0000200002 1 0 600 
2 1 4 
p 160000.000005 1 0 1663.666447 
2 2 3 
p 160000.000005 1 0 1663.666447 
2 2 3 
p 160000.000005 1 0 1663.666447 
2 4 3 
p 60000.0000200002 1 0 600 
2 1 2 
p 60000.0000200002 1 0 600 
2 1 4 
p 160000.000005 1 0 6400 
2 3 4 
p 160000.000005 1 0 6400 
2 2 3 
p 160000.000005 1 0 6400 
2 1 4 
p 160000.000005 1 0 2336.333553 
2 4 1 
p 160000.000005 1 0 2336.333553 
2 2 3 
p 160000.000005 1 0 2336.333553 
Surfaces 5
1 336.33355299999999 3200 12000 0.9945218953634325 -0.10452846331371171 0 -0.10452846331371171 -0.9945218953634325 0 0 -0 -1 
1 -336.33355299999999 -3200 12000 0 -1 0 -1 0 0 -0 -0 -1 
1 -2000 -3200 12000 -1 0 0 0 1 0 0 0 -1 
1 -2000 3200 12000 0 1 0 1 0 0 0 0 -1 
1 -991.18675269054268 127.85876996181986 11999.999999999996 -0 -0 -1 -1 0 0 0 1 -0 
Triangulations 5
4 2 1 0 2.48181908042582e-13
336.333553 3200 12000 336.333553 3200 12600 -336.333553 -3200 12600 -336.333553 -3200 12000 0 0 0 -600 6435.25298923783 -600 6435.25298923783 0 4 1 2 4 2 3 
4 2 1 0 2.27373675443232e-13
-2000 3200 12000 -2000 3200 12600 336.333553 3200 12600 336.333553 3200 12000 0 0 0 -600 2336.333553 -600 2336.333553 0 4 1 2 4 2 3 
4 2 1 0 2.27373675443232e-13
-336.333553 -3200 12000 -336.333553 -3200 12600 -2000 -3200 12600 -2000 -3200 12000 0 0 0 -600 1663.666447 -600 1663.666447 0 3 1 2 4 1 3 
4 2 1 0 3.64906414818143e-12
336.333553 3200 12000 -336.333553 -3200 12000 -2000 -3200 12000 -2000 3200 12000 -1327.52030569054 3072.14123003818 -654.853199690543 -3327.85876996182 1008.81324730946 -3327.85876996182 1008.81324730946 3072.14123003818 4 1 2 4 2 3 
4 2 1 0 2.27373675443232e-13
-2000 -3200 12000 -2000 -3200 12600 -2000 3200 12600 -2000 3200 12000 0 0 0 -600 6400 -600 6400 0 4 1 2 4 2 3 

TShapes 25
Ve
1e-07
336.333553 3200 12000
0 0

0101101
*
Ed
 1e-07 1 1 0
1  1 0 0 600
6  1 1 0
6  2 2 0
0

0101000
+25 0 -25 1 *
Ve
1e-07
-336.333553 -3200 12000
0 0

0101101
*
Ed
 1e-07 1 1 0
1  2 0 0 600
6  3 1 0
6  4 3 0
0

0101000
+23 0 -23 1 *
Ed
 1e-07 1 1 0
1  3 0 0 6435.25298923783
6  5 1 0
6  6 4 0
6  7 1 2
0

0101000
+25 0 -23 0 *
Wi

0101100
+24 0 -22 0 -21 0 +21 1 *
Fa
0  1e-07 1 0
2  1
0101000
+20 0 *
Ve
1e-07
-2000 -3200 12000
0 0

0101101
*
Ed
 1e-07 1 1 0
1  4 0 0 600
6  8 3 0
6  9 5 0
0

0101000
+18 0 -18 1 *
Ed
 1e-07 1 1 0
1  5 0 0 1663.666447
6  10 3 0
6  11 4 0
6  12 3 2
0

0101000
+23 0 -18 0 *
Wi

0101100
+22 0 -17 0 -16 0 +16 1 *
Fa
0  1e-07 2 0
2  3
0101000
+15 0 *
Ve
1e-07
-2000 3200 12000
0 0

0101101
*
Ed
 1e-07 1 1 0
1  6 0 0 600
6  13 5 0
6  14 2 0
0

0101000
+13 0 -13 1 *
Ed
 1e-07 1 1 0
1  7 0 0 6400
6  15 5 0
6  16 4 0
6  17 5 2
0

0101000
+18 0 -13 0 *
Wi

0101100
+17 0 -12 0 -11 0 +11 1 *
Fa
0  1e-07 3 0
2  5
0101000
+10 0 *
Ed
 1e-07 1 1 0
1  8 0 0 2336.333553
6  18 2 0
6  19 4 0
6  20 2 2
0

0101000
+13 0 -25 0 *
Wi

0101100
+12 0 -24 0 -8 0 +8 1 *
Fa
0  1e-07 4 0
2  2
0101000
+7 0 *
Wi

0101100
+21 0 +16 0 +11 0 +8 0 *
Fa
0  1e-07 5 0
2  4
0101000
+5 0 *
Sh

0101100
+19 0 +14 0 +9 0 +6 0 +4 0 -4 1 *
So

0100000
+3 0 *
Co

1100000
+2 0 *

+1 0 