
CASCADE Topology V3, (c) Open Cascade
Locations 2
1
              1               0               0               0 
              0               1               0               0 
              0               0               1            2000 
2  1 -1 0
Curve2ds 0
Curves 8
1 3039.2304840000002 2864.101615 -2000 0 0 1 
1 -960.76951499999996 -4064.101615 -2000 0 0 1 
1 3039.2304840000002 2864.101615 -2000 -0.4999999999211624 -0.86602540382995563 0 
1 -1200 -4000 -2000 0 0 1 
1 -960.76951499999996 -4064.101615 -2000 -0.96592582655217663 0.25881904412058704 0 
1 -1200 4000 -2000 0 0 1 
1 -1200 -4000 -2000 0 1 0 
1 -1200 4000 -2000 0.96592582627295887 -0.25881904516264198 0 
Polygon3D 0
PolygonOnTriangulations 20
2 1 2 
p 200000.00002 1 0 2000 
2 4 3 
p 200000.00002 1 0 2000 
2 4 3 
p 200000.00002 1 0 2000 
2 1 2 
p 200000.00002 1 0 2000 
2 1 4 
p 201602.54038 1 0 7999.9999992614 
2 1 2 
p 201602.54038 1 0 7999.9999992614 
2 2 3 
p 201602.54038 1 0 7999.9999992614 
2 4 3 
p 200000.00002 1 0 2000 
2 1 2 
p 200000.00002 1 0 2000 
2 1 4 
p 23923.04852 1 0 247.669622680989 
2 2 3 
p 23923.04852 1 0 247.669622680989 
2 2 3 
p 23923.04852 1 0 247.669622680989 
2 4 3 
p 200000.00002 1 0 2000 
2 1 2 
p 200000.00002 1 0 2000 
2 1 4 
p 201602.54038 1 0 8000 
2 3 4 
p 201602.54038 1 0 8000 
2 2 3 
p 201602.54038 1 0 8000 
2 1 4 
p 201602.54038 1 0 4388.7743434267 
2 4 1 
p 201602.54038 1 0 4388.7743434267 
2 2 3 
p 201602.54038 1 0 4388.7743434267 
Surfaces 5
1 3039.2304840000002 2864.101615 -2000 0.86602540382995563 -0.4999999999211624 0 -0.4999999999211624 -0.86602540382995563 0 0 -0 -1 
1 -960.76951499999996 -4064.101615 -2000 -0.25881904412058704 -0.96592582655217663 0 -0.96592582655217663 0.25881904412058704 0 -0 0 -1 
1 -1200 -4000 -2000 -1 0 0 0 1 0 0 0 -1 
1 -1200 4000 -2000 0.25881904516264198 0.96592582627295887 -0 0.96592582627295887 -0.25881904516264198 0 0 -0 -1 
1 120.28473384617119 448.90873849962082 -2000 -0 -0 -1 -1 0 0 0 1 -0 
Triangulations 5
4 2 1 0 8.27652671578166e-13
3039.230484 2864.101615 -2000 3039.230484 2864.101615 0 -960.769515 -4064.101615 0 -960.769515 -4064.101615 -2000 0 0 0 -2000 7999.9999992614 -2000 7999.9999992614 0 4 1 2 4 2 3 
4 2 1 0 5.20978539379466e-13
-1200 4000 -2000 -1200 4000 0 3039.230484 2864.101615 0 3039.230484 2864.101615 -2000 0 0 0 -2000 4388.7743434267 -2000 4388.7743434267 0 4 1 2 4 2 3 
4 2 1 0 5.08422994585042e-13
-960.769515 -4064.101615 -2000 -960.769515 -4064.101615 0 -1200 -4000 0 -1200 -4000 -2000 0 0 0 -2000 247.669622680989 -2000 247.669622680989 0 4 1 2 4 2 3 
4 2 1 0 2.27373675443232e-13
3039.230484 2864.101615 -2000 -960.769515 -4064.101615 -2000 -1200 -4000 -2000 -1200 4000 -2000 -2918.94575015383 2415.19287650038 1081.05424884617 -4513.01035349962 1320.28473384617 -4448.90873849962 1320.28473384617 3551.09126150038 4 1 2 4 2 3 
4 2 1 0 3.21554935538437e-13
-1200 -4000 -2000 -1200 -4000 0 -1200 4000 0 -1200 4000 -2000 0 0 0 -2000 8000 -2000 8000 0 4 1 2 4 2 3 

TShapes 25
Ve
1e-07
3039.230484 2864.101615 -2000
0 0

0101101
*
Ed
 1e-07 1 1 0
1  1 0 0 2000
6  1 1 0
6  2 2 0
0

0101000
+25 0 -25 1 *
Ve
1e-07
-960.769515 -4064.101615 -2000
0 0

0101101
*
Ed
 1e-07 1 1 0
1  2 0 0 2000
6  3 1 0
6  4 3 0
0

0101000
+23 0 -23 1 *
Ed
 1e-07 1 1 0
1  3 0 0 7999.9999992614
6  5 1 0
6  6 4 0
6  7 1 2
0

0101000
+25 0 -23 0 *
Wi

0101100
+24 0 -22 0 -21 0 +21 1 *
Fa
0  1e-07 1 0
2  1
0101000
+20 0 *
Ve
1e-07
-1200 -4000 -2000
0 0

0101101
*
Ed
 1e-07 1 1 0
1  4 0 0 2000
6  8 3 0
6  9 5 0
0

0101000
+18 0 -18 1 *
Ed
 1e-07 1 1 0
1  5 0 0 247.669622680989
6  10 3 0
6  11 4 0
6  12 3 2
0

0101000
+23 0 -18 0 *
Wi

0101100
+22 0 -17 0 -16 0 +16 1 *
Fa
0  1e-07 2 0
2  3
0101000
+15 0 *
Ve
1e-07
-1200 4000 -2000
0 0

0101101
*
Ed
 1e-07 1 1 0
1  6 0 0 2000
6  13 5 0
6  14 2 0
0

0101000
+13 0 -13 1 *
Ed
 1e-07 1 1 0
1  7 0 0 8000
6  15 5 0
6  16 4 0
6  17 5 2
0

0101000
+18 0 -13 0 *
Wi

0101100
+17 0 -12 0 -11 0 +11 1 *
Fa
0  1e-07 3 0
2  5
0101000
+10 0 *
Ed
 1e-07 1 1 0
1  8 0 0 4388.7743434267
6  18 2 0
6  19 4 0
6  20 2 2
0

0101000
+13 0 -25 0 *
Wi

0101100
+12 0 -24 0 -8 0 +8 1 *
Fa
0  1e-07 4 0
2  2
0101000
+7 0 *
Wi

0101100
+21 0 +16 0 +11 0 +8 0 *
Fa
0  1e-07 5 0
2  4
0101000
+5 0 *
Sh

0101100
+19 0 +14 0 +9 0 +6 0 +4 0 -4 1 *
So

0100000
+3 0 *
Co

1100000
+2 0 *

+1 0 