
CASCADE Topology V3, (c) Open Cascade
Locations 2
1
              1               0               0               0 
              0               1               0               0 
              0               0               1           12000 
2  1 -1 0
Curve2ds 0
Curves 8
1 2539.2304840000002 1998.0762119999999 0 0 0 1 
1 -460.76951500000001 -3198.0762110000001 0 0 0 1 
1 2539.2304840000002 1998.0762119999999 0 -0.49999999985382804 -0.86602540386883109 0 
1 -1200 -3000 0 0 0 1 
1 -460.76951500000001 -3198.0762110000001 0 -0.96592582644463221 0.25881904452194826 0 
1 -1200 3000 0 0 0 1 
1 -1200 -3000 0 0 1 0 
1 -1200 3000 0 0.96592582632146418 -0.25881904498161756 0 
Polygon3D 0
PolygonOnTriangulations 20
2 1 2 
p 300000.000005 1 0 12000 
2 4 3 
p 300000.000005 1 0 12000 
2 4 3 
p 300000.000005 1 0 12000 
2 1 2 
p 300000.000005 1 0 12000 
2 1 4 
p 300000.000005 1 0 5999.99999975406 
2 1 2 
p 300000.000005 1 0 5999.99999975406 
2 2 3 
p 300000.000005 1 0 5999.99999975406 
2 4 3 
p 300000.000005 1 0 12000 
2 1 2 
p 300000.000005 1 0 12000 
2 1 4 
p 73923.04852 1 0 765.307712830239 
2 2 3 
p 73923.04852 1 0 765.307712830239 
2 2 3 
p 73923.04852 1 0 765.307712830239 
2 4 3 
p 300000.000005 1 0 12000 
2 1 2 
p 300000.000005 1 0 12000 
2 1 4 
p 300000.000005 1 0 6000 
2 3 4 
p 300000.000005 1 0 6000 
2 2 3 
p 300000.000005 1 0 6000 
2 1 4 
p 300000.000005 1 0 3871.13625301863 
2 4 1 
p 300000.000005 1 0 3871.13625301863 
2 2 3 
p 300000.000005 1 0 3871.13625301863 
Surfaces 5
1 2539.2304840000002 1998.0762119999999 0 0.86602540386883109 -0.49999999985382804 0 -0.49999999985382804 -0.86602540386883109 0 0 -0 -1 
1 -460.76951500000001 -3198.0762110000001 0 -0.25881904452194826 -0.96592582644463221 0 -0.96592582644463221 0.25881904452194826 0 -0 0 -1 
1 -1200 -3000 0 -1 0 0 0 1 0 0 0 -1 
1 -1200 3000 0 0.25881904498161762 0.96592582632146429 -0 0.96592582632146429 -0.25881904498161762 0 0 -0 -1 
1 59.631426532267881 222.54751412743033 0 -0 -0 -1 -1 0 0 0 1 -0 
Triangulations 5
4 2 1 0 6.9153003668114e-13
2539.230484 1998.076212 0 2539.230484 1998.076212 12000 -460.769515 -3198.076211 12000 -460.769515 -3198.076211 0 0 0 0 -12000 5999.99999975406 -12000 5999.99999975406 0 4 1 2 4 2 3 
4 2 1 0 2.27373675443232e-13
-1200 3000 0 -1200 3000 12000 2539.230484 1998.076212 12000 2539.230484 1998.076212 0 0 0 0 -12000 3871.13625301863 -12000 3871.13625301863 0 4 1 2 4 2 3 
4 2 1 0 4.54747350886464e-13
-460.769515 -3198.076211 0 -460.769515 -3198.076211 12000 -1200 -3000 12000 -1200 -3000 0 0 0 0 -12000 765.307712830239 -12000 765.307712830239 0 4 1 2 4 2 3 
4 2 1 0 5.71269289430398e-13
2539.230484 1998.076212 0 -460.769515 -3198.076211 0 -1200 -3000 0 -1200 3000 0 -2479.59905746773 1775.52869787257 520.400941532268 -3420.62372512743 1259.63142653227 -3222.54751412743 1259.63142653227 2777.45248587257 4 1 2 4 2 3 
4 2 1 0 0
-1200 -3000 0 -1200 -3000 12000 -1200 3000 12000 -1200 3000 0 0 0 0 -12000 6000 -12000 6000 0 4 1 2 4 2 3 

TShapes 25
Ve
1e-07
2539.230484 1998.076212 0
0 0

0101101
*
Ed
 1e-07 1 1 0
1  1 0 0 12000
6  1 1 0
6  2 2 0
0

0101000
+25 0 -25 1 *
Ve
1e-07
-460.769515 -3198.076211 0
0 0

0101101
*
Ed
 1e-07 1 1 0
1  2 0 0 12000
6  3 1 0
6  4 3 0
0

0101000
+23 0 -23 1 *
Ed
 1e-07 1 1 0
1  3 0 0 5999.99999975406
6  5 1 0
6  6 4 0
6  7 1 2
0

0101000
+25 0 -23 0 *
Wi

0101100
+24 0 -22 0 -21 0 +21 1 *
Fa
0  1e-07 1 0
2  1
0101000
+20 0 *
Ve
1e-07
-1200 -3000 0
0 0

0101101
*
Ed
 1e-07 1 1 0
1  4 0 0 12000
6  8 3 0
6  9 5 0
0

0101000
+18 0 -18 1 *
Ed
 1e-07 1 1 0
1  5 0 0 765.307712830239
6  10 3 0
6  11 4 0
6  12 3 2
0

0101000
+23 0 -18 0 *
Wi

0101100
+22 0 -17 0 -16 0 +16 1 *
Fa
0  1e-07 2 0
2  3
0101000
+15 0 *
Ve
1e-07
-1200 3000 0
0 0

0101101
*
Ed
 1e-07 1 1 0
1  6 0 0 12000
6  13 5 0
6  14 2 0
0

0101000
+13 0 -13 1 *
Ed
 1e-07 1 1 0
1  7 0 0 6000
6  15 5 0
6  16 4 0
6  17 5 2
0

0101000
+18 0 -13 0 *
Wi

0101100
+17 0 -12 0 -11 0 +11 1 *
Fa
0  1e-07 3 0
2  5
0101000
+10 0 *
Ed
 1e-07 1 1 0
1  8 0 0 3871.13625301863
6  18 2 0
6  19 4 0
6  20 2 2
0

0101000
+13 0 -25 0 *
Wi

0101100
+12 0 -24 0 -8 0 +8 1 *
Fa
0  1e-07 4 0
2  2
0101000
+7 0 *
Wi

0101100
+21 0 +16 0 +11 0 +8 0 *
Fa
0  1e-07 5 0
2  4
0101000
+5 0 *
Sh

0101100
+19 0 +14 0 +9 0 +6 0 +4 0 -4 1 *
So

0100000
+3 0 *
Co

1100000
+2 0 *

+1 0 