
CASCADE Topology V3, (c) Open Cascade
Locations 2
1
              1               0               0               0 
              0               1               0               0 
              0               0               1            1800 
2  1 -1 0
Curve2ds 0
Curves 8
1 4198.0762109999996 1271.281293 12600 0 0 1 
1 3798.0762110000001 578.46096999999997 12600 0 0 1 
1 4198.0762109999996 1271.281293 12600 -0.50000000001491196 -0.86602540377582926 0 
1 2239.2304840000002 1478.460969 12600 0 0 1 
1 3798.0762110000001 578.46096999999997 12600 -0.86602540405111383 0.49999999953810509 0 
1 2639.2304840000002 2171.2812920000001 12600 0 0 1 
1 2239.2304840000002 1478.460969 12600 0.50000000001491229 0.86602540377582904 0 
1 2639.2304840000002 2171.2812920000001 12600 0.86602540405111372 -0.4999999995381052 0 
Polygon3D 0
PolygonOnTriangulations 20
2 1 2 
p 48971.14318 1 0 1800 
2 4 3 
p 48971.14318 1 0 1800 
2 4 3 
p 48971.14318 1 0 1800 
2 1 2 
p 48971.14318 1 0 1800 
2 1 4 
p 48971.14318 1 0 799.99999997614 
2 1 2 
p 48971.14318 1 0 799.99999997614 
2 2 3 
p 48971.14318 1 0 799.99999997614 
2 4 3 
p 48971.14318 1 0 1800 
2 1 2 
p 48971.14318 1 0 1800 
2 1 4 
p 48971.14318 1 0 1799.99999966282 
2 2 3 
p 48971.14318 1 0 1799.99999966282 
2 2 3 
p 48971.14318 1 0 1799.99999966282 
2 4 3 
p 48971.14318 1 0 1800 
2 1 2 
p 48971.14318 1 0 1800 
2 1 4 
p 48971.14318 1 0 799.99999997614 
2 3 4 
p 48971.14318 1 0 799.99999997614 
2 2 3 
p 48971.14318 1 0 799.99999997614 
2 1 4 
p 48971.14318 1 0 1799.99999966282 
2 4 1 
p 48971.14318 1 0 1799.99999966282 
2 2 3 
p 48971.14318 1 0 1799.99999966282 
Surfaces 5
1 4198.0762109999996 1271.281293 12600 0.86602540377582926 -0.50000000001491196 0 -0.50000000001491196 -0.86602540377582926 0 0 -0 -1 
1 3798.0762110000001 578.46096999999997 12600 -0.49999999953810509 -0.86602540405111383 0 -0.86602540405111383 0.49999999953810509 0 -0 0 -1 
1 2239.2304840000002 1478.460969 12600 -0.86602540377582904 0.50000000001491229 0 0.50000000001491229 0.86602540377582904 0 0 0 -1 
1 2639.2304840000002 2171.2812920000001 12600 0.4999999995381052 0.86602540405111372 -0 0.86602540405111372 -0.4999999995381052 0 0 -0 -1 
1 3218.6533475000001 1374.8711310000003 12600 -0 -0 -1 -1 0 0 0 1 -0 
Triangulations 5
4 2 1 0 5.08422994585042e-13
4198.076211 1271.281293 12600 4198.076211 1271.281293 14400 3798.076211 578.46097 14400 3798.076211 578.46097 12600 0 0 0 -1800 799.99999997614 -1800 799.99999997614 0 4 1 2 4 2 3 
4 2 1 0 5.08422994585042e-13
2639.230484 2171.281292 12600 2639.230484 2171.281292 14400 4198.076211 1271.281293 14400 4198.076211 1271.281293 12600 0 0 0 -1800 1799.99999966282 -1800 1799.99999966282 0 4 1 2 4 2 3 
4 2 1 0 0
3798.076211 578.46097 12600 3798.076211 578.46097 14400 2239.230484 1478.460969 14400 2239.230484 1478.460969 12600 0 0 0 -1800 1799.99999966282 -1800 1799.99999966282 0 4 1 2 4 2 3 
4 2 1 0 4.54747350886464e-13
4198.076211 1271.281293 12600 3798.076211 578.46097 12600 2239.230484 1478.460969 12600 2639.230484 2171.281292 12600 -979.422863499999 -103.589838 -579.4228635 -796.410161 979.4228635 103.589838 579.4228635 796.410161 4 1 2 4 2 3 
4 2 1 0 5.08422994585042e-13
2239.230484 1478.460969 12600 2239.230484 1478.460969 14400 2639.230484 2171.281292 14400 2639.230484 2171.281292 12600 0 0 0 -1800 799.99999997614 -1800 799.99999997614 0 4 1 2 4 2 3 

TShapes 25
Ve
1e-07
4198.076211 1271.281293 12600
0 0

0101101
*
Ed
 1e-07 1 1 0
1  1 0 0 1800
6  1 1 0
6  2 2 0
0

0101000
+25 0 -25 1 *
Ve
1e-07
3798.076211 578.46097 12600
0 0

0101101
*
Ed
 1e-07 1 1 0
1  2 0 0 1800
6  3 1 0
6  4 3 0
0

0101000
+23 0 -23 1 *
Ed
 1e-07 1 1 0
1  3 0 0 799.99999997614
6  5 1 0
6  6 4 0
6  7 1 2
0

0101000
+25 0 -23 0 *
Wi

0101100
+24 0 -22 0 -21 0 +21 1 *
Fa
0  1e-07 1 0
2  1
0101000
+20 0 *
Ve
1e-07
2239.230484 1478.460969 12600
0 0

0101101
*
Ed
 1e-07 1 1 0
1  4 0 0 1800
6  8 3 0
6  9 5 0
0

0101000
+18 0 -18 1 *
Ed
 1e-07 1 1 0
1  5 0 0 1799.99999966282
6  10 3 0
6  11 4 0
6  12 3 2
0

0101000
+23 0 -18 0 *
Wi

0101100
+22 0 -17 0 -16 0 +16 1 *
Fa
0  1e-07 2 0
2  3
0101000
+15 0 *
Ve
1e-07
2639.230484 2171.281292 12600
0 0

0101101
*
Ed
 1e-07 1 1 0
1  6 0 0 1800
6  13 5 0
6  14 2 0
0

0101000
+13 0 -13 1 *
Ed
 1e-07 1 1 0
1  7 0 0 799.99999997614
6  15 5 0
6  16 4 0
6  17 5 2
0

0101000
+18 0 -13 0 *
Wi

0101100
+17 0 -12 0 -11 0 +11 1 *
Fa
0  1e-07 3 0
2  5
0101000
+10 0 *
Ed
 1e-07 1 1 0
1  8 0 0 1799.99999966282
6  18 2 0
6  19 4 0
6  20 2 2
0

0101000
+13 0 -25 0 *
Wi

0101100
+12 0 -24 0 -8 0 +8 1 *
Fa
0  1e-07 4 0
2  2
0101000
+7 0 *
Wi

0101100
+21 0 +16 0 +11 0 +8 0 *
Fa
0  1e-07 5 0
2  4
0101000
+5 0 *
Sh

0101100
+19 0 +14 0 +9 0 +6 0 +4 0 -4 1 *
So

0100000
+3 0 *
Co

1100000
+2 0 *

+1 0 