
CASCADE Topology V3, (c) Open Cascade
Locations 0
Curve2ds 16
7 0 0  1 2 2  0 0  700 0 
 0 2 600 2
1 700 0 0 1 
1 0 0 0 1 
1 0 1 1 0 
1 0 0 0 1 
1 7400 0 0 1 
7 0 0  1 2 2  0 0  7400 0 
 0 2 6400 2
1 7400 0 0 1 
1 0 0 0 1 
1 0 1 1 0 
7 0 0  1 2 2  0 0  700 0 
 0 2 600 2
1 700 0 0 1 
1 0 0 0 1 
1 0 1 1 0 
7 0 0  1 2 2  0 0  7400 0 
 0 2 6400 2
1 0 1 1 0 
Curves 12
1 0 3200 12000 0 0 1 
7 0 0  1 2 2  0 3200 12600  8000 3700 13700 
 0 2 1 2
1 8000 3700 13000 0 0 1 
7 0 0  1 2 2  0 3200 12000  8000 3700 13000 
 0 2 1 2
1 0 3200 12600 0 -1 0 
7 0 0  1 2 2  0 -3200 12600  8000 -3700 13700 
 0 2 1 2
1 8000 3700 13700 0 -1 0 
1 0 -3200 12600 0 0 -1 
7 0 0  1 2 2  0 -3200 12000  8000 -3700 13000 
 0 2 1 2
1 8000 -3700 13700 0 0 -1 
1 0 -3200 12000 0 1 0 
1 8000 -3700 13000 0 1 0 
Polygon3D 0
PolygonOnTriangulations 24
2 1 2 
p 60000.0000200002 1 0 600 
2 2 4 
p 60000.0000200002 1 0 600 
2 2 3 
p 200000.000005 1 0 1 
2 1 4 
p 200000.000005 1 0 1 
2 4 3 
p 70000.0000200002 1 0 700 
2 2 4 
p 70000.0000200002 1 0 700 
2 1 4 
p 200000.000005 1 0 1 
2 2 3 
p 200000.000005 1 0 1 
2 1 2 
p 200000.000005 1 0 6400 
2 4 3 
p 200000.000005 1 0 6400 
2 2 3 
p 200000.000005 1 0 1 
2 1 4 
p 200000.000005 1 0 1 
2 4 3 
p 200000.000005 1 0 7400 
2 4 3 
p 200000.000005 1 0 7400 
2 1 2 
p 60000.0000200002 1 0 600 
2 3 1 
p 60000.0000200002 1 0 600 
2 2 3 
p 200000.000005 1 0 1 
2 1 4 
p 200000.000005 1 0 1 
2 4 3 
p 70000.0000200002 1 0 700 
2 3 1 
p 70000.0000200002 1 0 700 
2 1 2 
p 200000.000005 1 0 6400 
2 1 2 
p 200000.000005 1 0 6400 
2 4 3 
p 200000.000005 1 0 7400 
2 1 2 
p 200000.000005 1 0 7400 
Surfaces 6
9 0 0 0 0 1 1 2 2 2 2 0 3200 12000  8000 3700 13000  
0 3200 12600  8000 3700 13700  

0 2
700 2

0 2
1 2

1 0 3200 12000 -1 0 0 0 -0.9956342260592882 0.093340708693058272 0 0.093340708693058272 0.9956342260592882 
9 0 0 0 0 1 1 2 2 2 2 0 3200 12600  8000 3700 13700  
0 -3200 12600  8000 -3700 13700  

0 2
7400 2

0 2
1 2

1 8000 3700 13000 -1 0 0 0 -0.99555573511454243 0.094174191159483736 0 0.094174191159483736 0.99555573511454243 
9 0 0 0 0 1 1 2 2 2 2 0 -3200 12000  8000 -3700 13000  
0 3200 12000  8000 3700 13000  

0 2
7400 2

0 2
1 2

9 0 0 0 0 1 1 2 2 2 2 0 -3200 12600  8000 -3700 13700  
0 -3200 12000  8000 -3700 13000  

0 2
700 2

0 2
1 2

Triangulations 6
4 2 1 0 25
0 3200 12000 0 3200 12600 8000 3700 13700 8000 3700 13000 0 0 700 0 700 1 0 1 3 1 2 3 4 1 
4 2 1 0 1.13686837721616e-12
0 -3200 12000 0 3200 12000 0 -3200 12600 0 3200 12600 6372.05904677944 -597.380535635573 0 0 6428.06347199528 -1.13686837721616e-13 56.004425215835 597.380535635573 3 2 1 3 4 2 
4 2 1 0 250
0 3200 12600 0 -3200 12600 8000 -3700 13700 8000 3700 13700 0 0 7400 0 7400 1 0 1 3 1 2 3 4 1 
4 2 1 0 2.27373675443232e-13
8000 -3700 13000 8000 3700 13000 8000 -3700 13700 8000 3700 13700 7367.11243984761 -696.88901458018 0 0 7433.03437365925 1.13686837721616e-13 65.9219338116386 696.88901458018 3 2 1 3 4 2 
4 2 1 0 250
0 -3200 12000 0 3200 12000 8000 3700 13000 8000 -3700 13000 0 0 7400 0 7400 1 0 1 4 1 2 3 4 2 
4 2 1 0 25
0 -3200 12600 0 -3200 12000 8000 -3700 13000 8000 -3700 13700 0 0 700 0 700 1 0 1 3 1 2 3 4 1 

TShapes 34
Ve
1e-07
0 3200 12000
0 0

0101101
*
Ve
1e-07
0 3200 12600
0 0

0101101
*
Ed
 1e-07 1 1 0
1  1 0 0 600
2  1 1 0 0 600
4 C0 1 0 2 0
6  1 1 0
6  2 2 0
0

0101000
+34 0 -33 0 *
Ve
1e-07
8000 3700 13700
0 0

0101101
*
Ed
 1e-07 1 1 0
1  2 0 0 1
2  2 1 0 0 1
2  3 3 0 0 1
4 C0 1 0 3 0
6  3 1 0
6  4 3 0
0

0101000
+33 0 -31 0 *
Ve
1e-07
8000 3700 13000
0 0

0101101
*
Ed
 1e-07 1 1 0
1  3 0 0 700
2  4 1 0 0 700
4 C0 1 0 4 0
6  5 1 0
6  6 4 0
0

0101000
+29 0 -31 0 *
Ed
 1e-07 1 1 0
1  4 0 0 1
2  5 1 0 0 1
2  6 5 0 0 1
4 C0 1 0 5 0
6  7 1 0
6  8 5 0
0

0101000
+34 0 -29 0 *
Wi

0101000
+32 0 +30 0 -28 0 -27 0 *
Fa
0  1e-07 1 0
2  1
0101000
+26 0 *
Ve
1e-07
0 -3200 12600
0 0

0101101
*
Ed
 1e-07 1 1 0
1  5 0 0 6400
2  7 3 0 0 6400
4 C0 3 0 2 0
6  9 3 0
6  10 2 0
0

0101000
+33 0 -24 0 *
Ve
1e-07
8000 -3700 13700
0 0

0101101
*
Ed
 1e-07 1 1 0
1  6 0 0 1
2  8 3 0 0 1
2  9 6 0 0 1
4 C0 3 0 6 0
6  11 3 0
6  12 6 0
0

0101000
+24 0 -22 0 *
Ed
 1e-07 1 1 0
1  7 0 0 7400
2  10 3 0 0 7400
4 C0 3 0 4 0
6  13 3 0
6  14 4 0
0

0101000
+31 0 -22 0 *
Wi

0101000
+23 0 +21 0 -20 0 -30 0 *
Fa
0  1e-07 3 0
2  3
0101000
+19 0 *
Ve
1e-07
0 -3200 12000
0 0

0101101
*
Ed
 1e-07 1 1 0
1  8 0 0 600
2  11 6 0 0 600
4 C0 6 0 2 0
6  15 6 0
6  16 2 0
0

0101000
+24 0 -17 0 *
Ve
1e-07
8000 -3700 13000
0 0

0101101
*
Ed
 1e-07 1 1 0
1  9 0 0 1
2  12 6 0 0 1
2  13 5 0 0 1
4 C0 6 0 5 0
6  17 6 0
6  18 5 0
0

0101000
+17 0 -15 0 *
Ed
 1e-07 1 1 0
1  10 0 0 700
2  14 6 0 0 700
4 C0 6 0 4 0
6  19 6 0
6  20 4 0
0

0101000
+22 0 -15 0 *
Wi

0101000
+16 0 +14 0 -13 0 -21 0 *
Fa
0  1e-07 6 0
2  6
0101000
+12 0 *
Ed
 1e-07 1 1 0
1  11 0 0 6400
2  15 5 0 0 6400
4 C0 5 0 2 0
6  21 5 0
6  22 2 0
0

0101000
+17 0 -34 0 *
Ed
 1e-07 1 1 0
1  12 0 0 7400
2  16 5 0 0 7400
4 C0 5 0 4 0
6  23 5 0
6  24 4 0
0

0101000
+15 0 -29 0 *
Wi

0101000
+10 0 +27 0 -9 0 -14 0 *
Fa
0  1e-07 5 0
2  5
0101000
+8 0 *
Wi

0101100
+32 0 +23 0 +16 0 +10 0 *
Fa
0  1e-07 2 0
2  2
0101000
-6 0 *
Wi

0101100
+28 0 +20 0 +13 0 +9 0 *
Fa
0  1e-07 4 0
2  4
0101000
-4 0 *
Sh

0101100
+25 0 +18 0 +11 0 +7 0 +5 0 -3 0 *
So

1100100
+2 0 *

+1 0 