
CASCADE Topology V3, (c) Open Cascade
Locations 2
1
              1               0               0               0 
              0               1               0               0 
              0               0               1           12000 
2  1 -1 0
Curve2ds 0
Curves 8
1 2580.0302739999997 2518.6194209999999 0 0 0 1 
1 1332.5601279999998 -3350.266185 0 0 0 1 
1 2580.0302739999997 2518.6194209999999 0 -0.20791169093798673 -0.97814760070825058 0 
1 -315.31270599999999 -3000 0 0 0 1 
1 1332.5601279999998 -3350.266185 0 -0.97814760057258665 0.20791169157623468 0 
1 315.31270599999999 3000 0 0 0 1 
1 -315.31270599999999 -3000 0 0.10452846333420453 0.99452189536127855 0 
1 315.31270599999999 3000 0 0.97814760076962304 -0.20791169064925194 0 
Polygon3D 0
PolygonOnTriangulations 20
2 1 2 
p 300000.000005 1 0 12000 
2 4 3 
p 300000.000005 1 0 12000 
2 4 3 
p 300000.000005 1 0 12000 
2 1 2 
p 300000.000005 1 0 12000 
2 1 4 
p 300000.000005 1 0 6000.0000017896 
2 1 2 
p 300000.000005 1 0 6000.0000017896 
2 2 3 
p 300000.000005 1 0 6000.0000017896 
2 4 3 
p 300000.000005 1 0 12000 
2 1 2 
p 300000.000005 1 0 12000 
2 1 4 
p 164787.28342 1 0 1684.68729365115 
2 2 3 
p 164787.28342 1 0 1684.68729365115 
2 2 3 
p 164787.28342 1 0 1684.68729365115 
2 4 3 
p 300000.000005 1 0 12000 
2 1 2 
p 300000.000005 1 0 12000 
2 1 4 
p 300000.000005 1 0 6033.04967742353 
2 3 4 
p 300000.000005 1 0 6033.04967742353 
2 2 3 
p 300000.000005 1 0 6033.04967742353 
2 1 4 
p 226471.75682 1 0 2315.31270558562 
2 4 1 
p 226471.75682 1 0 2315.31270558562 
2 2 3 
p 226471.75682 1 0 2315.31270558562 
Surfaces 5
1 2580.0302739999997 2518.6194209999999 0 0.97814760070825058 -0.20791169093798673 0 -0.20791169093798673 -0.97814760070825058 0 0 -0 -1 
1 1332.5601279999998 -3350.266185 0 -0.20791169157623471 -0.97814760057258676 0 -0.97814760057258676 0.20791169157623471 0 -0 0 -1 
1 -315.31270599999999 -3000 0 -0.99452189536127855 0.10452846333420453 0 0.10452846333420453 0.99452189536127855 0 0 0 -1 
1 315.31270599999999 3000 0 0.20791169064925194 0.97814760076962304 -0 0.97814760076962304 -0.20791169064925194 0 0 -0 -1 
1 994.59900809869953 -90.77386193844049 0 -0 -0 -1 -1 0 0 0 1 -0 
Triangulations 5
4 2 1 0 3.21554935538437e-13
2580.030274 2518.619421 0 2580.030274 2518.619421 12000 1332.560128 -3350.266185 12000 1332.560128 -3350.266185 0 0 0 0 -12000 6000.0000017896 -12000 6000.0000017896 0 4 1 2 4 2 3 
4 2 1 0 6.82121026329696e-13
315.312706 3000 0 315.312706 3000 12000 2580.030274 2518.619421 12000 2580.030274 2518.619421 0 0 0 0 -12000 2315.31270558562 -12000 2315.31270558562 0 4 1 2 4 2 3 
4 2 1 0 4.54747350886464e-13
1332.560128 -3350.266185 0 1332.560128 -3350.266185 12000 -315.312706 -3000 12000 -315.312706 -3000 0 0 0 0 -12000 1684.68729365115 -12000 1684.68729365115 0 4 1 2 4 2 3 
4 2 1 0 2.54211497292521e-13
2580.030274 2518.619421 0 1332.560128 -3350.266185 0 -315.312706 -3000 0 315.312706 3000 0 -1585.4312659013 2609.39328293844 -337.9611199013 -3259.49232306156 1309.9117140987 -2909.22613806156 679.286302098699 3090.77386193844 1 2 3 4 1 3 
4 2 1 0 1.4210854715202e-14
-315.312706 -3000 0 -315.312706 -3000 12000 315.312706 3000 12000 315.312706 3000 0 0 0 0 -12000 6033.04967742353 -12000 6033.04967742353 0 4 1 2 4 2 3 

TShapes 25
Ve
1e-07
2580.030274 2518.619421 0
0 0

0101101
*
Ed
 1e-07 1 1 0
1  1 0 0 12000
6  1 1 0
6  2 2 0
0

0101000
+25 0 -25 1 *
Ve
1e-07
1332.560128 -3350.266185 0
0 0

0101101
*
Ed
 1e-07 1 1 0
1  2 0 0 12000
6  3 1 0
6  4 3 0
0

0101000
+23 0 -23 1 *
Ed
 1e-07 1 1 0
1  3 0 0 6000.0000017896
6  5 1 0
6  6 4 0
6  7 1 2
0

0101000
+25 0 -23 0 *
Wi

0101100
+24 0 -22 0 -21 0 +21 1 *
Fa
0  1e-07 1 0
2  1
0101000
+20 0 *
Ve
1e-07
-315.312706 -3000 0
0 0

0101101
*
Ed
 1e-07 1 1 0
1  4 0 0 12000
6  8 3 0
6  9 5 0
0

0101000
+18 0 -18 1 *
Ed
 1e-07 1 1 0
1  5 0 0 1684.68729365115
6  10 3 0
6  11 4 0
6  12 3 2
0

0101000
+23 0 -18 0 *
Wi

0101100
+22 0 -17 0 -16 0 +16 1 *
Fa
0  1e-07 2 0
2  3
0101000
+15 0 *
Ve
1e-07
315.312706 3000 0
0 0

0101101
*
Ed
 1e-07 1 1 0
1  6 0 0 12000
6  13 5 0
6  14 2 0
0

0101000
+13 0 -13 1 *
Ed
 1e-07 1 1 0
1  7 0 0 6033.04967742353
6  15 5 0
6  16 4 0
6  17 5 2
0

0101000
+18 0 -13 0 *
Wi

0101100
+17 0 -12 0 -11 0 +11 1 *
Fa
0  1e-07 3 0
2  5
0101000
+10 0 *
Ed
 1e-07 1 1 0
1  8 0 0 2315.31270558562
6  18 2 0
6  19 4 0
6  20 2 2
0

0101000
+13 0 -25 0 *
Wi

0101100
+12 0 -24 0 -8 0 +8 1 *
Fa
0  1e-07 4 0
2  2
0101000
+7 0 *
Wi

0101100
+21 0 +16 0 +11 0 +8 0 *
Fa
0  1e-07 5 0
2  4
0101000
+5 0 *
Sh

0101100
+19 0 +14 0 +9 0 +6 0 +4 0 -4 1 *
So

0100000
+3 0 *
Co

1100000
+2 0 *

+1 0 