
CASCADE Topology V3, (c) Open Cascade
Locations 2
1
              1               0               0               0 
              0               1               0               0 
              0               0               1           12000 
2  1 -1 0
Curve2ds 0
Curves 8
1 315.31270599999999 3000 0 0 0 1 
1 -315.31270599999999 -3000 0 0 0 1 
1 315.31270599999999 3000 0 -0.10452846333420453 -0.99452189536127855 0 
1 -2000 -3000 0 0 0 1 
1 -315.31270599999999 -3000 0 -1 0 0 
1 -2000 3000 0 0 0 1 
1 -2000 -3000 0 0 1 0 
1 -2000 3000 0 1 0 0 
Polygon3D 0
PolygonOnTriangulations 20
2 1 2 
p 300000.000005 1 0 12000 
2 4 3 
p 300000.000005 1 0 12000 
2 4 3 
p 300000.000005 1 0 12000 
2 1 2 
p 300000.000005 1 0 12000 
2 1 4 
p 300000.000005 1 0 6033.04967742353 
2 1 2 
p 300000.000005 1 0 6033.04967742353 
2 2 3 
p 300000.000005 1 0 6033.04967742353 
2 4 3 
p 300000.000005 1 0 12000 
2 1 2 
p 300000.000005 1 0 12000 
2 1 4 
p 168468.72942 1 0 1684.687294 
2 2 3 
p 168468.72942 1 0 1684.687294 
2 2 3 
p 168468.72942 1 0 1684.687294 
2 4 3 
p 300000.000005 1 0 12000 
2 1 2 
p 300000.000005 1 0 12000 
2 1 4 
p 300000.000005 1 0 6000 
2 3 4 
p 300000.000005 1 0 6000 
2 2 3 
p 300000.000005 1 0 6000 
2 1 4 
p 231531.27062 1 0 2315.312706 
2 4 1 
p 231531.27062 1 0 2315.312706 
2 2 3 
p 231531.27062 1 0 2315.312706 
Surfaces 5
1 315.31270599999999 3000 0 0.99452189536127855 -0.10452846333420453 0 -0.10452846333420453 -0.99452189536127855 0 0 -0 -1 
1 -315.31270599999999 -3000 0 0 -1 0 -1 0 0 -0 -0 -1 
1 -2000 -3000 0 -1 0 0 0 1 0 0 0 -1 
1 -2000 3000 0 0 1 0 1 0 0 0 0 -1 
1 -991.73758064411732 117.99852642282968 0 -0 -0 -1 -1 0 0 0 1 -0 
Triangulations 5
4 2 1 0 1.4210854715202e-14
315.312706 3000 0 315.312706 3000 12000 -315.312706 -3000 12000 -315.312706 -3000 0 0 0 0 -12000 6033.04967742353 -12000 6033.04967742353 0 4 1 2 4 2 3 
4 2 1 0 2.27373675443232e-13
-2000 3000 0 -2000 3000 12000 315.312706 3000 12000 315.312706 3000 0 0 0 0 -12000 2315.312706 -12000 2315.312706 0 4 1 2 4 2 3 
4 2 1 0 2.27373675443232e-13
-315.312706 -3000 0 -315.312706 -3000 12000 -2000 -3000 12000 -2000 -3000 0 0 0 0 -12000 1684.687294 -12000 1684.687294 0 4 1 2 4 2 3 
4 2 1 0 3.21554935538437e-13
315.312706 3000 0 -315.312706 -3000 0 -2000 -3000 0 -2000 3000 0 -1307.05028664412 2882.00147357717 -676.424874644117 -3117.99852642283 1008.26241935588 -3117.99852642283 1008.26241935588 2882.00147357717 4 1 2 4 2 3 
4 2 1 0 0
-2000 -3000 0 -2000 -3000 12000 -2000 3000 12000 -2000 3000 0 0 0 0 -12000 6000 -12000 6000 0 4 1 2 4 2 3 

TShapes 25
Ve
1e-07
315.312706 3000 0
0 0

0101101
*
Ed
 1e-07 1 1 0
1  1 0 0 12000
6  1 1 0
6  2 2 0
0

0101000
+25 0 -25 1 *
Ve
1e-07
-315.312706 -3000 0
0 0

0101101
*
Ed
 1e-07 1 1 0
1  2 0 0 12000
6  3 1 0
6  4 3 0
0

0101000
+23 0 -23 1 *
Ed
 1e-07 1 1 0
1  3 0 0 6033.04967742353
6  5 1 0
6  6 4 0
6  7 1 2
0

0101000
+25 0 -23 0 *
Wi

0101100
+24 0 -22 0 -21 0 +21 1 *
Fa
0  1e-07 1 0
2  1
0101000
+20 0 *
Ve
1e-07
-2000 -3000 0
0 0

0101101
*
Ed
 1e-07 1 1 0
1  4 0 0 12000
6  8 3 0
6  9 5 0
0

0101000
+18 0 -18 1 *
Ed
 1e-07 1 1 0
1  5 0 0 1684.687294
6  10 3 0
6  11 4 0
6  12 3 2
0

0101000
+23 0 -18 0 *
Wi

0101100
+22 0 -17 0 -16 0 +16 1 *
Fa
0  1e-07 2 0
2  3
0101000
+15 0 *
Ve
1e-07
-2000 3000 0
0 0

0101101
*
Ed
 1e-07 1 1 0
1  6 0 0 12000
6  13 5 0
6  14 2 0
0

0101000
+13 0 -13 1 *
Ed
 1e-07 1 1 0
1  7 0 0 6000
6  15 5 0
6  16 4 0
6  17 5 2
0

0101000
+18 0 -13 0 *
Wi

0101100
+17 0 -12 0 -11 0 +11 1 *
Fa
0  1e-07 3 0
2  5
0101000
+10 0 *
Ed
 1e-07 1 1 0
1  8 0 0 2315.312706
6  18 2 0
6  19 4 0
6  20 2 2
0

0101000
+13 0 -25 0 *
Wi

0101100
+12 0 -24 0 -8 0 +8 1 *
Fa
0  1e-07 4 0
2  2
0101000
+7 0 *
Wi

0101100
+21 0 +16 0 +11 0 +8 0 *
Fa
0  1e-07 5 0
2  4
0101000
+5 0 *
Sh

0101100
+19 0 +14 0 +9 0 +6 0 +4 0 -4 1 *
So

0100000
+3 0 *
Co

1100000
+2 0 *

+1 0 